<svg width="220" height="136" viewBox="0 0 220 136" fill="none" xmlns="http://www.w3.org/2000/svg">
<path d="M49.2651 74.7081L45.6191 93.9371L47.1111 110.513L48.1041 117.308L53.5751 123.607L53.7401 125.265L45.9501 126.26L42.8011 125.429L42.9661 120.954L41.6401 117.971L39.8161 118.468L40.4791 112.666L38.4911 105.705L34.6801 89.1291L43.2991 74.8751L49.2651 74.7081Z" fill="#CEB197"/>
<path d="M148.719 80.6761L146.398 97.5821L143.911 103.385L141.425 117.971L140.595 119.959L143.911 121.783L147.226 127.087L144.076 128.579L140.098 128.248L137.28 127.751L134.298 121.617L135.79 118.468L136.121 105.208L135.955 84.1561L148.719 80.6761Z" fill="#CEB197"/>
<path d="M12.4681 33.9332L10.6431 37.0822L9.31714 77.5272L5.67114 92.2782L0.201141 101.893L3.68115 116.645L1.36215 121.286L2.68713 122.612L8.32413 116.645L10.3121 95.2621L9.31714 92.1142L12.4681 78.1892L13.4631 42.5522L12.4681 33.9332Z" fill="#CEB197"/>
<path d="M177.559 6.41814L185.35 4.26215L202.257 14.7051L202.589 16.1971L215.187 24.3191L219.662 25.9771V28.2971L218.17 34.9281L215.85 37.7461L212.7 37.5791L211.208 39.4031H202.755L193.472 37.5791L190.985 39.7341L187.174 46.0331L178.223 51.8362L165.957 60.1221L158.996 73.7151L152.862 83.8251L147.06 86.4781L139.104 89.7931L138.276 96.4231L135.955 99.5731L134.464 115.152L135.955 124.934L138.11 126.591L140.431 133.884L138.441 134.215L138.11 135.873L128.33 133.884V126.923L126.84 125.265L126.177 122.944L124.352 122.28L126.84 105.374L125.513 98.5771L122.86 87.9691L101.311 87.4731L78.4371 83.6591L67.8291 84.8191L46.2811 76.8642L44.2931 78.0241L36.3361 95.5932L35.1761 98.0791L34.8451 102.225L33.3531 119.959L36.3361 122.28L37.3311 124.435L41.4741 130.237L40.9761 131.563H29.8721L27.7181 127.419L27.0541 124.435L23.4071 121.286L23.5721 118.303L24.2361 102.555L18.4341 95.2621L19.2631 89.2952L21.0871 82.5001L12.4681 45.2051L11.9701 32.9381L24.7331 19.8441L41.1421 13.5452H49.9281L57.5531 15.5331L84.9031 13.2132L102.638 14.3741L110.263 12.8821L124.517 8.40715L129.657 7.41214L142.253 10.8931L153.526 12.7161L165.957 11.7221L169.271 11.0582L177.559 6.41814Z" fill="#DDC4AB"/>
<path d="M217.258 28.7941L214.524 28.0471L212.783 28.7941L214.276 29.2911L215.27 30.2861L217.258 28.7941Z" fill="#594B40"/>
<path d="M147.06 86.4781L139.373 89.6801L139.188 81.5041L141.675 67.5801L143.912 65.8401L144.161 66.8341L142.669 68.8241L142.172 76.7791L146.399 74.7911L151.123 63.8511L164.052 50.9211L170.266 46.6951L174.991 39.7331L172.505 36.5021L169.521 29.2911L170.764 28.0471L176.234 33.5181L185.433 34.7611L194.883 33.0211L201.206 34.7701L201.264 34.5941H205.74L207.397 36.5081L209.8 37.2471L212.693 37.5871L211.208 39.4031H202.755L193.472 37.5791L190.985 39.7341L187.174 46.0331L178.223 51.8361L165.957 60.1221L158.996 73.7151L152.862 83.8251L147.06 86.4781Z" fill="#CEB197"/>
<path d="M131.646 69.7361L133.968 71.0621V77.0291L131.149 80.8421L129.326 79.8471L127.171 73.8801L129.326 70.8961L131.646 69.7361Z" fill="#594B40"/>
<path d="M99.8211 30.1201L102.806 31.7781L102.97 34.9271L101.81 36.2541L101.312 39.4021L99.3251 42.3861L96.1751 41.5571L93.0251 37.0821L95.6771 32.2751L99.8211 30.1201Z" fill="#594B40"/>
<path d="M67.9971 55.8131H70.6491L71.9751 58.4641L69.3221 62.4421L64.0181 58.6301L63.3561 56.8071L67.9971 55.8131Z" fill="#594B40"/>
<path d="M46.2811 76.8641L44.5481 77.8771L47.1941 75.0401L51.9181 73.5481L67.8301 75.7851L84.9851 78.2711L98.6611 79.7641L111.59 77.0291L116.81 75.0401L116.562 70.5641L116.313 66.5861L118.303 65.0941L119.298 68.3261L120.292 70.3141L120.541 78.2711L122.033 84.7361L122.841 87.9691L101.311 87.4731L78.4371 83.6591L67.8291 84.8191L46.2811 76.8641Z" fill="#CEB197"/>
<path d="M12.3451 42.2222C12.3701 42.2212 12.3851 42.2202 12.3851 42.2202L17.6071 57.6362L22.3311 71.8072L24.0701 83.9912L23.3251 93.4391L27.0541 100.151L28.2981 105.374L28.0501 115.318L27.0541 121.783L27.5521 125.761L33.2701 124.021L34.5141 124.269L27.7381 127.458L27.7181 127.419L27.0541 124.435L23.4071 121.287L23.5721 118.304L24.2361 102.556L18.4341 95.2632L19.2631 89.2962L21.0861 82.5012L12.4671 45.2062L12.3451 42.2222Z" fill="#CEB197"/>
<path d="M20.9232 49.8452L24.0701 50.8402L26.5571 53.4922C26.5571 53.4922 25.8951 56.8072 25.8951 57.3052C25.8951 57.8012 26.2261 62.9422 26.7231 63.6032C27.2201 64.2672 27.7181 67.2492 27.7181 67.2492L23.7391 70.2332L18.7211 72.2642L14.4872 53.9402L20.9232 49.8452Z" fill="#594B40"/>
<path d="M22.0352 70.9231L18.7221 72.2651L14.4872 53.9401L16.0231 52.9631L17.6071 57.6361L22.0352 70.9231Z" fill="#3F342C"/>
<path d="M63.8521 81.2562L76.0351 82.2502C76.0351 82.2502 96.6721 84.2392 97.6671 84.4872C98.6611 84.7362 114.574 84.4872 114.574 84.4872C114.574 84.4872 118.758 84.9592 122.157 85.2742L122.86 87.9682L101.311 87.4722L78.4371 83.6592L67.8291 84.8192L59.1761 81.6242L63.8521 81.2562Z" fill="#BC9A7E"/>
<path d="M139.188 84.1142C144.634 83.4462 146.896 83.2442 146.896 83.2442L155.35 76.2832L161.881 68.0792L158.995 73.7152L152.861 83.8252L147.059 86.4772L139.103 89.7921L139.188 84.1142Z" fill="#BC9A7E"/>
<path d="M24.7331 19.8441L41.1421 13.5451H49.9281L57.5531 15.5331L84.9031 13.2131L102.638 14.3741L110.263 12.8821L124.517 8.40712L129.657 7.41211L142.253 10.8931L153.526 12.7161L162.524 11.9971L159.493 13.5431L152.366 14.8701L137.116 13.0461L127.669 11.7201L110.263 17.3571L87.3891 20.6711L70.9791 19.6771L49.1011 19.0141L33.6851 20.5061L24.7341 22.6601L17.2751 29.6221L14.1341 30.7181L24.7331 19.8441Z" fill="#EFD3B9"/>
<path d="M97.8321 71.8911C97.8321 71.3941 100.982 60.7861 100.982 60.7861L98.3301 54.1561C98.3301 54.1561 99.4901 51.0081 99.9871 50.6761C100.485 50.3421 107.114 45.2061 107.114 45.2061L109.436 39.5691L107.612 31.9441L99.6551 16.1971L100.314 14.2211L102.638 14.3741L110.263 12.8821L124.517 8.40712L129.657 7.41211L136.788 9.38211L137.614 11.2241L134.961 16.8601L130.819 26.3081V28.4621L130.653 34.0981L131.647 39.5681L133.801 37.7451H137.116L137.945 35.9211L139.436 32.4401L142.089 32.9371L145.569 27.4671L149.215 18.0191L152.861 14.2071L153.715 12.6991L158.81 12.2931L158.496 13.5441L158.829 15.8651L164.63 14.8711L167.116 13.5441V11.4891L169.269 11.0581L177.557 6.41711L181.474 5.33411L186.011 8.73711L190.32 10.8921L194.134 12.8811L196.454 16.0301L200.764 17.5211L206.234 23.9861L209.716 26.6381L209.55 29.6211L205.405 33.9311L204.815 39.4021H202.752L193.47 37.5781L190.983 39.7331L189.484 42.2091L183.526 41.0601L177.392 39.5681L170.596 34.0981L167.446 31.9431L165.624 32.6071L165.292 36.7511L163.801 41.2271L164.63 46.0341L168.94 51.5041L173.238 55.2031L168.024 58.7251L164.465 56.3101L159.989 60.2881L153.525 67.5821L149.878 70.7311L144.408 71.8911L141.59 69.5721C141.59 69.5721 137.28 64.9291 136.783 64.4321C136.286 63.9341 127.003 61.1181 127.003 61.1181L120.373 67.0851L118.053 72.5551L114.24 76.6991L106.948 80.0141L100.814 77.1961C100.816 77.1941 97.8321 72.3881 97.8321 71.8911Z" fill="#594B40"/>
<path d="M149.88 70.7301L147.977 71.1331L151.123 63.8511L164.052 50.9211L166.938 48.9591L168.941 51.5041L173.239 55.2031L168.025 58.7251L164.467 56.3101L159.991 60.2871L153.527 67.5811L149.88 70.7301Z" fill="#3F342C"/>
<path d="M183.528 41.0611L177.394 39.5681L171.966 35.1991L169.521 29.2911L170.764 28.0471L176.234 33.5181L185.433 34.7611L194.883 33.0211L201.206 34.7701L201.264 34.5941H205.336L204.817 39.4031H202.755L193.472 37.5791L190.985 39.7341L189.486 42.2101L183.528 41.0611Z" fill="#3F342C"/>
<path d="M141.675 67.5801L143.912 65.8401L144.161 66.8341L142.669 68.8241L142.571 70.3781L141.591 69.5711C141.591 69.5711 141.503 69.4761 141.363 69.3231L141.675 67.5801Z" fill="#3F342C"/>
<path d="M198.281 18.5161L195.628 17.3571L192.48 13.5431L188.335 14.3731L186.512 15.5331L181.042 12.8811L179.053 12.0521L178.224 13.5431L184.523 16.8591L188.004 17.8541L190.656 19.5101H193.804H196.789H199.274L200.269 18.8491L198.281 18.5161Z" fill="#3F342C"/>
<path d="M192.146 15.0352L188.5 16.0292L189.495 17.3572L191.483 18.1852L193.307 17.6882L192.644 16.3622L192.975 15.0352H192.146Z" fill="#191411"/>
<path d="M119.298 68.3261L119.595 68.9231L118.055 72.5541L116.752 73.9711L116.562 70.5641L116.313 66.5861L118.303 65.0941L119.298 68.3261Z" fill="#3F342C"/>
<path d="M111.59 77.0291L115.204 75.6511L114.242 76.6971L106.95 80.0131L103.966 78.6421L111.59 77.0291Z" fill="#3F342C"/>
<path d="M137.614 11.2241L136.779 12.9981L127.669 11.7201L110.263 17.3571L100.926 18.7091L99.6551 16.1971L100.314 14.2211L102.638 14.3741L110.263 12.8821L124.517 8.40712L129.657 7.41211L136.788 9.38211L137.614 11.2241Z" fill="#726156"/>
<path d="M152.366 14.8701L152.243 14.8551L152.862 14.2081L153.717 12.7001L155.436 12.5641L158.811 12.2931L158.498 13.5451L158.524 13.7241L152.366 14.8701Z" fill="#726156"/>
<path d="M24.7331 19.8442L41.1421 13.5452H49.9281L57.5531 15.5332L71.3651 14.3612L73.7981 15.3692L78.6041 16.3632L80.2621 15.8652L81.0921 17.0252L82.2511 26.6402L79.4341 27.1372L70.8141 30.1202L64.5151 29.4572L59.0461 31.7782L58.3821 35.4242L61.6981 36.5852L67.3331 35.4242L71.6421 38.0762L74.2951 39.5682L73.9641 46.3642L72.1401 50.8402L67.3331 49.8452L59.7091 50.5072L56.7251 55.6472L57.2221 58.7952L63.5211 61.7792L62.1961 65.4262L56.0621 64.7632L45.4531 60.9512L39.9821 50.8402V44.2092L38.9891 41.3912L34.0151 44.7072L27.5521 38.4082L20.9231 32.1092L24.2371 25.9772L23.9471 20.6512L24.7331 19.8442Z" fill="#594B40"/>
<path d="M73.7981 15.3692L78.6041 16.3632L80.2621 15.8652L81.0921 17.0252L81.4871 20.3142L70.9791 19.6772L49.1011 19.0142L33.6851 20.5062L24.7341 22.6602L24.0901 23.2622L23.9471 20.6512L24.7331 19.8442L41.1421 13.5452H49.9281L57.5531 15.5332L71.3651 14.3612L73.7981 15.3692Z" fill="#726156"/>
<path d="M183.361 11.0582L180.212 7.74315L177.56 3.76614L169.438 0.947144L167.946 3.10214L167.781 5.75415L175.406 10.2301L178.886 12.8821L183.361 11.0582Z" fill="#594B40"/>
<path d="M180.026 10.1461L178.554 7.90915L175.407 4.92514L171.262 3.26715L168.941 4.09514L169.77 5.92015L173.417 7.90814L176.67 8.71614L180.026 10.1461Z" fill="#3F342C"/>
</svg>
