<svg width="50" height="59" viewBox="0 0 50 59" fill="none" xmlns="http://www.w3.org/2000/svg">
<path d="M46.7706 10.1072L46.5692 12.5653L45.9669 14.1204L44.5635 13.3673L44.2113 11.5123L46.7706 10.1072Z" fill="#FF5050"/>
<path d="M49.8293 9.88141L49.5451 9.30436L48.5096 8.60266L46.8699 7.83297L46.4681 6.69716L45.5999 5.76011L45.0647 4.15534L43.9263 3.48676L43.3937 2.88443L42.5908 1.34678L40.6505 0.343475L39.7823 2.01536L38.3771 0.544836L36.8386 0.945816L36.1029 2.28297L34.9654 2.55057L35.3001 5.15952L33.2281 9.63909L30.1511 16.929L29.2149 17.9994L24.0659 18.4666L17.3112 19.6041L15.037 19.0018L11.6261 16.8618L9.82084 11.7128L5.87561 9.50572L4.47134 10.5753L4.40334 12.0475L2.33049 13.987L0.927085 14.5885L0.324745 15.6589L0.725725 17.4642V19.7375L0.257629 22.0117L1.05957 23.6836L2.46386 25.6894L4.80519 32.5111L6.61044 36.3901L10.8904 37.8606L11.7595 39.2667L16.7089 41.941L19.785 43.4115L23.3293 46.9566L24.3326 47.3585L25.403 51.5042V54.4461L23.8645 54.9151L21.3898 55.9184L21.0559 56.186L21.3898 56.3856L22.4611 56.118L23.3955 56.2531L26.9407 55.5828L29.1478 56.7204L31.5562 57.2556L33.494 58.0575L34.1634 58.5927H34.4319L33.8958 57.7228L32.8254 56.8537L30.0177 55.5166L31.0873 55.1818L33.9629 55.3161L34.6315 55.0485L36.2363 55.6499L36.4368 55.2481L34.6986 54.3119L33.9629 53.7113L32.291 54.1123L30.3516 54.2465L27.543 53.9772L26.6068 52.3062L26.2721 47.1563L27.6093 46.4206L29.282 43.8805L31.1544 40.5367L35.5686 38.8648L40.1824 36.3239L42.189 33.5144L43.7275 32.0431L43.9263 30.0364L44.9313 27.9636L44.5295 20.8079L44.7299 18.6017L42.9238 14.7219L42.4566 12.1138L43.1252 12.5819L43.8609 12.9157L45.5999 11.6457L46.6032 10.3077L48.3509 10.0575L49.8293 9.88141Z" fill="#C15729"/>
<path d="M44.7971 9.37149L46.2693 8.36818L46.4689 7.96721L46.8446 7.76236L46.8699 7.83297L48.5096 8.60266L49.5451 9.30436L49.8293 9.88142L48.3509 10.0575L46.6032 10.3077L46.4907 10.4585L44.7971 9.63909V9.37149Z" fill="#E5A85E"/>
<path d="M47.5219 8.40218L46.8708 8.15112L46.7705 8.35161L47.5219 8.40218Z" fill="#B54823"/>
<path d="M45.0298 7.26463L44.329 6.76254L44.0954 6.22821L43.7275 6.12796L42.9909 6.52894L42.8567 6.86367L43.2245 7.06415L44.0605 7.23151L45.0298 7.26463Z" fill="#A53A1E"/>
<path d="M43.636 6.5333L43.9114 6.58299L44.1625 6.67103L44.0117 6.97264L43.6848 7.02232L43.4599 6.82184L43.3841 6.49582L43.636 6.5333Z" fill="#E5A85E"/>
<path d="M43.7868 6.47137L43.8862 6.62044L43.7606 6.77124L43.6604 6.64659L43.7868 6.47137Z" fill="#B54823"/>
<path d="M8.3503 34.4497L13.7669 35.2525L26.6739 35.3859L34.9 32.7779L39.8485 27.9635L41.0523 20.6737L39.7151 15.2571L40.9852 11.0434L41.788 10.1734L43.4599 10.2414L44.797 9.63907L47.5036 10.1699L46.6032 10.3076L45.5999 11.6457L43.8609 12.9157L43.1252 12.5819L42.4566 12.1138L42.9238 14.7219L44.7299 18.6017L44.5294 20.8079L44.9313 27.9635L43.9262 30.0364L43.7275 32.043L42.189 33.5144L40.1824 36.3238L35.5686 38.8648L31.1544 40.5367L29.282 43.8805L27.6092 46.4205L26.4978 47.0333L24.0728 47.2547L23.3293 46.9566L19.785 43.4115L16.7089 41.941L11.7594 39.2666L10.8904 37.8606L6.61043 36.3901L4.90717 32.7282L8.3503 34.4497Z" fill="#B54823"/>
<path d="M35.3681 28.4317L32.8263 30.8392L31.5562 33.1126L29.9515 35.4539L27.6772 36.7231L23.3964 37.5259L17.177 37.3263L12.4298 36.5235L10.2889 34.8516L18.7155 31.9097L28.0782 28.1632L32.2919 26.5584L32.0235 25.2213L30.2182 24.1508L30.3524 23.6836L32.0906 24.1508L34.4328 24.8203L35.2339 25.6894L35.7028 26.6927L35.6357 27.5626L35.3681 28.4317Z" fill="#A53A1E"/>
<path d="M35.1668 27.5626L31.9572 30.3703L30.4858 33.5144L28.6126 35.5873L23.5978 36.3238L15.9061 35.922L9.82086 35.3859L10.4223 33.1126L17.0436 29.6346L21.9913 27.4954L24.3335 24.3513L28.1445 22.947L31.7567 24.5526L34.3648 25.3546L35.1676 26.6926L35.1668 27.5626Z" fill="#B54823"/>
<path d="M12.0951 19.6041L11.4265 20.407L8.9518 17.3971L5.94276 12.3143L4.52017 10.5378L4.89325 10.2527L6.27661 11.712L8.54996 15.1891L10.4223 18.1319L12.0951 19.6041Z" fill="#B54823"/>
<path d="M4.22988 12.2105L4.80519 13.1162L6.20947 15.5909L7.01316 18.2661L8.7513 22.1451L7.74711 23.4822L6.74468 22.2113L5.74224 19.4699L4.80519 16.2595L3.48285 12.9079L4.22988 12.2105Z" fill="#B54823"/>
<path d="M2.21104 14.0376L3.53426 19.0689C3.53426 19.0689 5.47288 22.5461 5.54087 22.7474C5.60799 22.947 6.54418 24.8211 6.54418 24.8211L5.74222 25.9578L4.13659 21.4103L2.79943 18.5346L1.87457 14.1831L2.21104 14.0376Z" fill="#B54823"/>
<path d="M0.725725 19.7375V17.4642L0.324745 15.6589L0.927085 14.5885L0.933177 14.585L1.12583 16.6613L2.26424 20.6066L3.86901 24.8865L4.73807 28.4317L4.20809 30.7712L2.46386 25.6894L1.05957 23.6836L0.257629 22.0117L0.725725 19.7375Z" fill="#B54823"/>
<path d="M45.8178 10.1072L43.8609 11.0102L42.3058 11.1602L43.0589 14.2198L44.3133 14.4211L45.6164 13.2173L46.3687 10.9597L46.6032 10.3077L45.8178 10.1072Z" fill="#CC371F"/>
<path d="M41.204 13.0665V14.1204L40.952 14.5214L40.6505 13.3167L41.204 13.0665Z" fill="#A53A1E"/>
<path d="M40.8518 11.4618L40.6505 12.5147L40.1502 12.8155L39.8485 11.3615L40.8518 11.4618Z" fill="#B54823"/>
<path d="M40.199 13.8188L39.8485 15.1734H39.397L39.3465 13.4675L40.199 13.8188Z" fill="#B54823"/>
<path d="M39.397 12.364L39.1956 12.7153L38.9951 12.615L39.1459 11.8122L39.397 12.364Z" fill="#B54823"/>
<path d="M39.8485 18.1319L40.0002 19.4368L39.2462 19.7872L39.0963 17.7815L39.8485 18.1319Z" fill="#B54823"/>
<path d="M41.5039 20.2387L40.9521 22.1948L40.6008 21.9943L40.5005 20.2387H41.5039Z" fill="#B54823"/>
<path d="M39.7979 20.339L39.6986 21.0406L39.0963 20.841V20.189L39.7979 20.339Z" fill="#B54823"/>
<path d="M40.0002 21.894L39.4476 23.2486L38.5951 23.1981L38.7947 21.3423L40.0002 21.894Z" fill="#B54823"/>
<path d="M40.8518 23.6L40.1004 23.2487L39.2462 24.5527L39.1956 25.1542L39.397 25.3547L40.701 24.653L40.8518 23.6Z" fill="#B54823"/>
<path d="M38.9455 16.1758L38.3937 17.0789L38.0433 16.8278L38.344 16.0259L38.9455 16.1758Z" fill="#B54823"/>
<path d="M37.5918 8.95309L37.3416 9.45432L36.8386 9.20414L37.0897 8.55212L37.5918 8.95309Z" fill="#B54823"/>
<path d="M41.8543 4.84045L41.1526 5.19174V5.54303L42.0556 5.14119L41.8543 4.84045Z" fill="#B54823"/>
<path d="M40.8013 4.64086L40.6505 5.39224L40.1501 5.4428V4.49005L40.8013 4.64086Z" fill="#B54823"/>
<path d="M39.8982 4.84045L39.397 5.39224H38.9951L39.3464 4.53973L39.8982 4.84045Z" fill="#B54823"/>
<path d="M39.5478 5.74353L39.2462 5.99457L39.3464 6.19505L39.5478 5.74353Z" fill="#B54823"/>
<path d="M36.8386 6.59604L35.9364 6.84621V7.44854L36.9397 7.1975L36.8386 6.59604Z" fill="#B54823"/>
<path d="M4.58815 25.9064L3.53429 25.1036L2.43161 24.4019V24.8534L3.38436 25.5046L4.38765 26.3074L4.58815 25.9064Z" fill="#A53A1E"/>
<path d="M39.3464 4.53976L37.3416 4.84048L35.7351 6.54549L33.9804 8.30193L33.8095 8.38038L35.3001 5.15952L35.0133 2.91319L35.3829 2.45208L36.1029 2.28297L36.8386 0.945816L38.3771 0.544836L39.7823 2.01536L40.6505 0.343475L42.5908 1.34678L43.3936 2.88443L43.9262 3.48676L45.0647 4.15534L45.0777 4.19456L44.1625 4.64087L41.8046 4.23903L39.3464 4.53976Z" fill="#B54823"/>
<path d="M39.1957 3.23572L37.3913 3.83718L35.1502 5.48378L35.3001 5.15952L34.9654 2.55057L36.1029 2.28297L36.8386 0.945816L38.3772 0.544836L39.7823 2.01536L40.6505 0.343475L42.5909 1.34678L43.3937 2.88443L43.9263 3.48676L45.0647 4.15534L45.5999 5.76011L46.4681 6.69716L46.6032 7.07722L45.0647 5.44282L43.2594 4.13878L41.0523 3.13461L39.1957 3.23572Z" fill="#CC371F"/>
<path d="M40.2495 1.41303L40.1022 1.39647L40.6505 0.343475L42.5908 1.34678L43.3936 2.88443L43.9262 3.48676L45.0647 4.15534L45.2128 4.60165L44.329 4.08822L43.6604 3.88774L42.9909 2.91755L42.2892 1.64665L40.8841 0.944938L40.2495 1.41303Z" fill="#FF5050"/>
<path d="M38.1095 1.14538L37.1054 1.44699L36.3705 2.01532L36.2659 1.98743L36.8386 0.945779L38.3771 0.5448L38.9516 1.14538H38.1095Z" fill="#FF5050"/>
<path d="M40.2495 26.5087L39.8485 27.9636L39.2967 27.7125L39.1459 25.957L40.2495 26.5087Z" fill="#B54823"/>
<path d="M40.5511 25.2544L39.798 25.6562L40.6008 25.957L40.5511 25.2544Z" fill="#B54823"/>
<path d="M35.8859 30.27H37.04L36.7384 31.0231L35.4849 30.7712L35.8859 30.27Z" fill="#B54823"/>
<path d="M37.7417 27.7125L38.5951 28.1632L37.2901 29.1673L36.8386 28.8657L37.7417 27.7125Z" fill="#B54823"/>
<path d="M38.6447 29.2676L38.1932 29.0166L37.5412 30.4705L38.0433 30.4208L38.6447 29.2676Z" fill="#B54823"/>
<path d="M36.5876 29.4672L36.1866 29.7182L35.987 29.5178L36.4873 29.1168L36.5876 29.4672Z" fill="#B54823"/>
<path d="M35.7856 32.1258L35.2844 31.8251L34.3308 32.4266L34.0309 33.5301L35.1345 33.0794L35.7856 32.1258Z" fill="#B54823"/>
<path d="M9.10172 33.8317L9.00148 34.6345L7.74712 34.3835L7.49695 33.5807L9.10172 33.8317Z" fill="#B54823"/>
<path d="M7.54749 33.0795L6.59475 32.2261L6.24258 32.3769L6.64531 33.6809L7.54749 33.0795Z" fill="#B54823"/>
<path d="M33.6291 16.6273L32.9762 17.7814L32.6763 17.4798L33.0268 16.3266L33.6291 16.6273Z" fill="#B54823"/>
<path d="M32.475 15.7252L32.3747 16.3772L31.9232 16.276L31.9737 15.373L32.475 15.7252Z" fill="#B54823"/>
<path d="M41.5544 29.2676L41.102 30.4705L40.7507 30.27L40.9006 28.7655L41.5544 29.2676Z" fill="#A53A1E"/>
<path d="M40.6008 29.7183L39.4972 31.0232L38.6447 30.4705L39.8485 28.966L40.6008 29.7183Z" fill="#A53A1E"/>
<path d="M40.3 31.8251L39.5478 33.1797L39.2462 32.7779L39.5478 31.4233L40.3 31.8251Z" fill="#A53A1E"/>
<path d="M38.745 31.9759L37.4915 32.1764V31.7754L38.6944 31.2236L38.745 31.9759Z" fill="#A53A1E"/>
<path d="M38.344 32.8781L37.2404 33.2303L37.3416 33.3802L38.344 32.8781Z" fill="#A53A1E"/>
<path d="M38.2429 33.5301L38.3937 33.8814L37.8933 34.1325L37.3913 33.9817L38.2429 33.5301Z" fill="#A53A1E"/>
<path d="M16.3829 41.764L19.2847 41.7056L24.2995 42.7098L27.7104 42.1075L31.1213 39.5988L33.4277 38.0951L38.9455 35.9891L41.4524 33.6809L43.6273 32.1389L42.189 33.5144L40.1824 36.3239L35.5686 38.8648L31.1544 40.5367L29.282 43.8805L27.6093 46.4205L26.2721 47.1562L26.409 49.2561L24.8757 49.4601L24.3326 47.3585L23.3293 46.9566L19.785 43.4115L16.7089 41.941L16.3829 41.764Z" fill="#A53A1E"/>
<path d="M23.8645 54.9151L25.403 54.4461V51.5042L24.3448 47.4056L26.2817 47.3062L26.6068 52.3062L27.543 53.9772L30.3516 54.2465L32.291 54.1123L33.9629 53.7113L34.6986 54.3119L36.4368 55.2481L36.2363 55.6499L34.6315 55.0485L33.9629 55.3161L31.0872 55.1818L30.0177 55.5166L32.8254 56.8537L33.8958 57.7228L34.4319 58.5927H34.1634L33.494 58.0575L31.5562 57.2556L29.1478 56.7204L26.9407 55.5828L23.3955 56.2531L22.4611 56.118L21.3898 56.3856L21.0559 56.186L21.3898 55.9184L23.8645 54.9151Z" fill="#E5A85E"/>
<path d="M32.7757 38.0951L32.0234 38.5458L31.673 38.2956L32.5255 37.2923L32.7757 38.0951Z" fill="#A53A1E"/>
<path d="M31.171 38.8971L29.4659 39.5988L29.065 39.0976L30.1676 38.2956L31.171 38.8971Z" fill="#A53A1E"/>
<path d="M30.4195 39.6493L30.0177 40.9542L29.1146 41.1539L29.1652 39.7504L29.6167 39.8001L30.4195 39.6493Z" fill="#A53A1E"/>
<path d="M32.2754 39.0975L31.673 38.7968L31.4725 39.1481L31.6225 39.5988L32.2754 39.0975Z" fill="#A53A1E"/>
<path d="M30.7203 37.0918V37.5433H30.3176V37.192L30.7203 37.0918Z" fill="#A53A1E"/>
<path d="M27.9614 41.0039L26.9075 41.506L26.5066 40.9543L28.0617 40.0006L27.9614 41.0039Z" fill="#A53A1E"/>
<path d="M34.2314 37.342L33.5785 37.5434L33.5288 37.1921L34.5313 36.4389L34.2314 37.342Z" fill="#A53A1E"/>
<path d="M35.4849 36.8922L35.3846 37.4431L34.7326 37.3925L34.7823 36.7405L35.4849 36.8922Z" fill="#A53A1E"/>
<path d="M34.3813 27.1102L33.2769 27.261L32.1246 27.7622L31.4725 28.2643L31.3714 27.8633L32.6258 27.0099L33.6796 26.6089L34.3813 27.1102Z" fill="#A53A1E"/>
<path d="M34.5313 26.5088L33.1776 26.2071H31.9232L31.171 26.4085L30.9705 26.1078L32.5255 25.8567L34.1303 25.957L34.5313 26.5088Z" fill="#A53A1E"/>
<path d="M30.1676 27.3116L29.9671 28.0124L29.6167 27.662L30.1676 27.3116Z" fill="#A53A1E"/>
<path d="M31.4725 27.0605L30.62 26.6089L30.5695 26.9097L30.9199 27.261L31.4725 27.0605Z" fill="#A53A1E"/>
<path d="M30.7691 28.9163L31.8726 29.0166L32.5761 28.9163L31.7733 29.367L30.5695 29.2676L30.4196 28.5145L30.7203 28.063L30.7691 28.9163Z" fill="#A53A1E"/>
<path d="M29.8172 25.2544L29.6664 25.7059L30.0177 26.3073L29.2149 25.7564V24.8534L30.4195 24.5526L29.8172 25.2544Z" fill="#A53A1E"/>
<path d="M28.6631 25.5045L28.5629 25.957L28.9142 26.4085L28.1619 26.1077L28.3118 25.4052L28.9647 24.9545L28.6631 25.5045Z" fill="#A53A1E"/>
<path d="M28.7634 27.2104L27.9109 27.4118L27.8106 26.9603L28.7634 27.2104Z" fill="#A53A1E"/>
<path d="M28.6125 32.0256L27.9108 33.3296L26.5563 33.6312L26.5066 33.2791L27.6607 33.0795L28.4129 31.6743L28.6125 32.0256Z" fill="#A53A1E"/>
<path d="M27.2083 32.4266L26.1056 32.5773L25.7552 32.2261V31.8251L26.1056 32.1258L27.2083 32.4266Z" fill="#A53A1E"/>
<path d="M28.7145 31.0729L29.4154 30.3206L29.1652 31.1234L28.7145 31.0729Z" fill="#A53A1E"/>
<path d="M4.23688 24.3513L3.63454 23.2487L2.02979 22.5966L2.07946 22.9471L4.23688 24.3513Z" fill="#A53A1E"/>
<path d="M3.58396 22.4458L3.48459 21.6927L4.33709 20.2893L4.48789 20.7408L3.58396 22.4458Z" fill="#A53A1E"/>
<path d="M2.2808 20.9919V21.4425L0.825958 20.6903L0.87565 20.4401L2.2808 20.9919Z" fill="#A53A1E"/>
<path d="M3.23442 18.885L2.93283 19.5867L2.68091 19.4368L2.93283 18.3838L3.23442 18.885Z" fill="#A53A1E"/>
<path d="M22.1429 55.9506L23.4975 55.6996L25.6035 55.0484L25.8537 54.4461L25.403 54.3406V51.5042L24.3448 47.4055L25.3987 47.3524L25.3533 49.4801L26.0559 52.8413L26.3558 54.4967L26.8474 55.6011L23.3955 56.2531L22.4611 56.118L21.3898 56.3856L21.2224 56.2854L22.1429 55.9506Z" fill="#CC7E48"/>
<path d="M26.4569 55.2481L28.6631 55.9001L30.5189 56.553L32.475 57.1544L33.0773 57.5057L33.5881 57.4726L33.8958 57.7228L34.4319 58.5927H34.1634L33.494 58.0575L31.5562 57.2555L29.1478 56.7203L26.9407 55.5828L26.5519 55.6578L26.4569 55.2481Z" fill="#CC7E48"/>
<path d="M30.1676 54.7469L31.7733 54.7966H33.2769L33.9804 54.6466L34.6315 55.0485L33.9629 55.3161L31.0872 55.1818L30.1589 55.4721L29.1146 55.1478L30.1676 54.7469Z" fill="#CC7E48"/>
<path d="M47.9735 9.47172L48.5592 9.44644L49.7273 9.67482L49.8293 9.88141L49.3917 9.86223L48.7092 9.63908L47.4722 9.57196L46.0671 9.60508L44.9365 9.7062L44.7971 9.63908V9.41071L46.4018 9.4386L47.9735 9.47172Z" fill="#B54823"/>
</svg>
