<svg width="121" height="103" viewBox="0 0 121 103" fill="none" xmlns="http://www.w3.org/2000/svg">
<path d="M92.3943 4.11809L95.1203 3.64209L97.5203 1.60608L99.3183 0.127075L106.583 2.34009L111.057 6.76709L113.234 10.5261L111.214 12.7701L118.644 20.7921L120.642 22.4811L120.835 24.1661L120.365 26.3401L120.285 28.4011L118.573 29.3671L116.81 31.6211L113.62 30.7251L110.232 28.2741L107.642 28.5621L104.285 28.6921L103.161 34.4521L100.502 36.5421L100.344 40.6631L98.1003 41.9961L96.6603 45.9371L92.7923 45.9181L91.6143 53.0941L88.3453 54.2591L87.1733 57.9541C87.1733 57.9541 85.1293 64.1941 85.1143 64.5811C85.0993 64.9671 79.1173 72.9911 79.1173 72.9911L74.3533 76.1621L73.8683 78.7231L72.7993 79.7131L72.2753 86.6571L73.1133 91.7181L74.9363 94.6251L78.1853 97.3281L78.2163 99.9081L74.4673 100.151L71.2523 99.8991L70.0873 96.6291L70.1463 95.0841L66.4613 93.6541L67.0503 91.7421L66.7523 89.4101L65.7593 78.2811L59.7963 75.7311L59.6623 72.5021L58.8343 70.5361L50.8263 70.8741L37.0923 72.5401L29.4413 70.3121L24.4623 72.3151L18.2583 76.0751L16.0303 80.3741L13.9753 83.5191L14.1893 88.0421L15.5463 92.9941L17.7013 93.9781L19.1773 95.8411L20.8363 96.2901L23.6113 101.297L22.9523 101.659L21.2793 101.594L21.6263 102.639L19.0353 102.928L12.7513 102.042L11.8243 99.2991L11.9973 98.1451L9.1943 97.2631L9.4613 93.6621L8.34629 89.1061L5.9533 80.8901L6.68029 78.7261L3.7523 71.0041L1.95629 57.2661L0.126305 44.4291L0.728294 35.4251L0.0293045 30.1121L1.2463 25.2581L6.01029 22.0881L8.9813 18.5901L21.8293 16.5031L32.4473 15.3621L47.6713 15.1711L59.3003 14.5851L71.1273 15.5531L76.2573 12.9121L78.9623 9.66208L86.6723 6.99109L84.3343 4.06409L84.0773 0.702087L86.1273 1.03809L92.3943 4.11809Z" fill="#D8B28D"/>
<path d="M6.10431 81.4111L8.2323 82.0121L11.0033 90.5011L11.4743 95.0321L11.0403 97.8451L9.19531 97.2651L9.46231 93.6651L8.3463 89.1091L6.10431 81.4111Z" fill="#C49772"/>
<path d="M65.7613 78.2821L63.8453 77.4631L65.4743 75.6921L67.2133 77.4341L68.8583 84.9771L68.1613 89.7221L68.4333 92.6981L69.1623 93.8871L69.1773 94.7091L66.4623 93.6551L67.0513 91.7431L66.7533 89.4111L65.7613 78.2821Z" fill="#C49772"/>
<path d="M13.2433 99.355L16.5613 96.902L18.9623 95.5681L19.1793 95.8441L20.8383 96.2931L23.6133 101.3L22.9543 101.662L21.2813 101.596L21.6273 102.641L19.0373 102.93L12.7523 102.045L12.0743 100.037L13.2433 99.355Z" fill="#C49772"/>
<path d="M73.0653 96.3581L75.8343 95.3711L78.1853 97.3281L78.2163 99.9081L74.4673 100.151L71.2523 99.8991L70.2173 96.9921L73.0653 96.3581Z" fill="#C49772"/>
<path d="M12.4953 101.282L16.2353 101.21L20.1983 101.264L18.3253 97.132L18.5293 96.8491L21.2043 100.239L22.9953 100.184L23.6133 101.3L22.9543 101.662L21.2813 101.596L21.6273 102.641L19.0373 102.93L12.7523 102.045L12.4953 101.282Z" fill="#936555"/>
<path d="M71.2523 99.8991L71.0383 99.3001L72.6943 99.3091L75.6993 99.1331L73.7453 96.1151L74.8093 95.7361L76.5343 97.5211L77.0623 98.8961L78.2053 98.9811L78.2163 99.9081L74.4673 100.151L71.2523 99.8991Z" fill="#936555"/>
<path d="M0.0313034 30.1151L1.2483 25.2611L6.01229 22.0911L8.9833 18.5931L21.8313 16.5061L32.4493 15.3651L47.6733 15.1741L59.3023 14.5881L71.1293 15.5561L76.2593 12.9151L78.9643 9.66507L86.6743 6.99406L84.3363 4.06706L84.0793 0.705063L86.1293 1.04106L92.3963 4.11707L95.1223 3.64107L97.5223 1.60507L99.3203 0.126068L106.585 2.33907L111.059 6.76607L111.821 8.08107L113.236 10.5251L111.876 12.0361L110.689 9.95306L110.183 9.44107L106.817 6.41107L100.919 3.86407L98.1633 5.11307L95.9573 7.15607L95.0663 10.2171L96.4493 14.5261C96.4493 14.5261 97.9953 19.6151 97.9663 20.3871C97.9373 21.1601 98.0193 24.0651 98.0193 24.0651L102.981 25.8021L104.962 28.6641L104.29 28.6901L103.166 34.4501L100.507 36.5401L100.349 40.6611L98.1053 41.9941L96.6653 45.9351L92.7973 45.9161L91.6193 53.0921L88.3503 54.2571L87.1783 57.9521C87.1783 57.9521 85.1343 64.1921 85.1193 64.5791C85.1043 64.9651 79.1223 72.9891 79.1223 72.9891L74.3583 76.1601L73.8733 78.7211L72.8783 79.6421L69.1963 79.6381L65.8453 79.1891L65.7643 78.2821L59.8013 75.7321L59.6673 72.5031L58.8393 70.5371L50.8313 70.8751L37.0973 72.5411L29.4463 70.3131L24.4673 72.3161L18.2633 76.0761L16.0353 80.3751L14.0843 83.3611L8.8953 83.3251L6.4063 82.4331L5.9573 80.8921L6.6843 78.7281L3.75629 71.0061L1.9603 57.2681L0.130302 44.4311L0.732292 35.4271L0.0313034 30.1151Z" fill="#AA805E"/>
<path d="M0.298309 41.8761L1.5793 46.9391L3.75531 54.1151L6.3903 59.3741L10.2243 63.6481L17.0593 63.6511L21.5113 61.8871L23.3283 58.2171L22.6243 53.0321L24.3723 51.1651L28.9533 52.7591L31.8863 56.9981L35.8143 62.1781L45.6263 65.2621L55.7793 66.1661C55.7793 66.1661 57.6573 64.3041 57.6713 63.9171C57.6863 63.5311 58.7303 59.8301 58.7303 59.8301L60.9343 56.1751L61.5383 53.8771L62.3793 55.4571L61.6033 58.9091C61.6033 58.9091 59.6333 63.2191 59.7473 63.6091C59.8603 64.0011 61.0163 67.5271 61.0163 67.5271L62.2193 69.7651L70.2733 71.6201L73.2703 70.8321L75.5923 67.4381L76.8093 62.5841L78.8933 55.3131L80.8783 50.6181L81.5763 45.8731L79.6393 42.5751L82.6003 42.6881L83.9773 43.7721L88.3903 39.6851L90.9193 34.2381L90.3593 32.0241L91.5773 30.5231L94.6723 30.5121L95.1483 28.2091L95.0333 24.4651L94.6903 19.9401L93.1743 12.4011L93.4853 7.64209L97.3383 4.69408L99.9873 2.86108L102.785 3.87108L106.336 5.42508L107.801 7.29808L106.815 6.41008L100.917 3.86308L98.1613 5.11208L95.9553 7.15508L95.0643 10.2161L96.4473 14.5251C96.4473 14.5251 97.9933 19.6141 97.9643 20.3861C97.9353 21.1591 98.0173 24.0641 98.0173 24.0641L102.979 25.8011L104.96 28.6631L104.288 28.6891L103.164 34.4491L100.505 36.5391L100.347 40.6601L98.1033 41.9931L96.6633 45.9341L92.7953 45.9151L91.6173 53.0911L88.3483 54.2561L87.1763 57.9511C87.1763 57.9511 85.1323 64.1911 85.1173 64.5781C85.1023 64.9641 79.1203 72.9881 79.1203 72.9881L74.3563 76.1591L73.8713 78.7201L72.8763 79.6411L69.1943 79.6371L65.8433 79.1881L65.7623 78.2811L59.7993 75.7311L59.6653 72.5021L58.8373 70.5361L50.8293 70.8741L37.0953 72.5401L29.4443 70.3121L24.4653 72.3151L18.2613 76.0751L16.0333 80.3741L14.0823 83.3601L8.89331 83.3241L6.40431 82.4321L5.95531 80.8911L6.68231 78.7271L3.7543 71.0051L1.9583 57.2671L0.128311 44.4301L0.298309 41.8761Z" fill="#8E684C"/>
<path d="M119.562 24.5691L118.871 22.4151L117.18 21.0931L117.155 21.7691L116.642 22.5231L118.15 23.5491L119.562 24.5691Z" fill="#936555"/>
<path d="M111.407 17.8071L108.724 14.6091L108.23 12.3661L107.42 10.7871L104.356 9.99207L103.137 11.4931L103.149 13.7181L106.173 15.5751L109.865 17.6511L112.503 19.4931L112.625 18.8211L111.407 17.8071Z" fill="#C49772"/>
<path d="M107.264 12.3281L105.426 12.3551L104.434 12.9941L104.898 13.4951L107.387 14.1711L106.941 13.1861L107.264 12.3281Z" fill="#936555"/>
<path d="M102.976 25.8021L98.0143 24.0651C98.0143 24.0651 97.9313 21.1611 97.9613 20.3871C97.9763 19.9871 97.5683 18.4241 97.1703 17.0121L97.4113 17.0781L99.2063 20.7251L100.555 23.3881L104.069 25.0711L107.494 26.5551L110.83 27.8441C110.83 27.8441 113.093 29.3811 113.379 29.4891C113.665 29.5961 116.451 30.0911 116.451 30.0911L117.343 29.5451L115.341 28.7911L112.566 28.0081L111.938 26.7271L112.814 26.5671L114.033 27.5811L117.272 28.8651L119.064 29.0911L118.574 29.3671L116.811 31.6211L113.621 30.7251L110.233 28.2741L107.643 28.5621L104.958 28.6661L102.976 25.8021Z" fill="#C49772"/>
<path d="M16.0323 80.3761L14.0813 83.3621L8.89229 83.3261L6.40329 82.4341L5.95428 80.8931L6.68129 78.7291L6.66629 78.6891L6.9453 78.6091L12.0373 79.4811L15.1393 76.7941C15.1393 76.7941 18.4893 72.6671 18.7893 72.3881C19.0903 72.1101 20.5493 66.8461 20.5493 66.8461L24.8273 63.7211L30.5633 68.0031L40.1503 70.2081L50.3353 69.4371L57.5703 67.3931L58.6113 68.0131L59.4023 70.0741C59.4023 70.0741 62.2403 71.7311 62.5153 72.1281C62.7893 72.5251 67.8203 75.0401 67.8203 75.0401L74.5583 73.3631L80.0883 67.8681L83.8723 62.5011L86.4233 56.5051L87.8263 55.8971L87.1733 57.9541C87.1733 57.9541 85.1293 64.1941 85.1143 64.5811C85.0993 64.9671 79.1173 72.9911 79.1173 72.9911L74.3533 76.1621L73.8683 78.7231L72.8733 79.6441L69.1913 79.6401L65.8403 79.1911L65.7593 78.2841L59.7963 75.7341L59.6623 72.5051L58.8343 70.5391L50.8263 70.8771L37.0923 72.5431L29.4413 70.3151L24.4623 72.3181L18.2583 76.0781L16.0323 80.3761Z" fill="#775742"/>
<path d="M88.6613 8.13506L86.5513 7.03705L86.6733 6.99506L84.3343 4.06805L84.0773 0.706055L86.1273 1.04205L92.3733 4.10805L92.6653 4.61205L94.1623 5.92705L95.0983 6.73705L94.4193 9.32205L92.1123 8.94305L88.6613 8.13506Z" fill="#D8B28D"/>
<path d="M94.2823 7.86607L92.0223 6.23207L88.6273 3.97406L85.1763 3.16507L85.8083 4.35007L87.3723 6.44107L90.6073 7.82207L94.1703 8.24806L94.2823 7.86607Z" fill="#C49772"/>
<path d="M92.5463 25.4021L93.3983 26.7241L92.7453 26.9571L91.2643 25.2241L92.5463 25.4021Z" fill="#8E684C"/>
<path d="M93.1003 27.7451L93.3133 28.914L92.6053 28.886L92.5833 27.7901L93.1003 27.7451Z" fill="#8E684C"/>
<path d="M86.0633 26.314L87.0983 27.902L89.0133 28.427L88.9903 29.006L86.8113 28.665L85.4513 27.13L85.4933 26.035L86.0633 26.314Z" fill="#8E684C"/>
<path d="M87.4493 25.4651L87.5293 26.7581C87.5293 26.7581 86.9603 26.4781 86.9663 26.2841C86.9733 26.0921 86.7583 24.9871 86.7583 24.9871L87.4493 25.4651Z" fill="#8E684C"/>
<path d="M86.4553 34.5831L86.6953 36.7201L86.1263 38.1171C86.1263 38.1171 84.8243 38.4541 84.8313 38.2611C84.8383 38.0691 84.9453 35.2991 84.9543 35.0421C84.9643 34.7841 84.4483 33.0881 84.4483 33.0881L86.4553 34.5831Z" fill="#8E684C"/>
<path d="M87.3983 33.5231L88.6463 34.6021L88.2853 35.6201L87.3613 34.4891L86.7553 33.4991L87.3983 33.5231Z" fill="#8E684C"/>
<path d="M75.2923 61.7541L75.3323 64.076L74.2973 64.165L73.5003 61.4261L72.9343 59.342L74.0743 59.9001L75.2923 61.7541Z" fill="#8E684C"/>
<path d="M72.1973 61.7631L73.3163 62.8391L71.9843 63.9481L69.7503 61.6701L69.5573 59.9861L72.1973 61.7631Z" fill="#8E684C"/>
<path d="M87.5793 30.4991L91.0323 31.2761L90.3393 32.5391L88.0603 31.4211L86.8173 30.2131L87.5793 30.4991Z" fill="#8E684C"/>
<path d="M79.6953 30.9711L82.6373 31.5991L80.7453 33.8481L79.6463 32.2581L78.4273 30.4071L79.6953 30.9711Z" fill="#8E684C"/>
<path d="M81.8693 28.0891L81.9433 29.5101L80.6613 29.332L80.6103 27.2661L81.8693 28.0891Z" fill="#8E684C"/>
<path d="M85.2843 39.9551L87.1563 41.5741L84.8333 41.6131L84.1003 40.5541L85.2843 39.9551Z" fill="#8E684C"/>
<path d="M81.3313 38.7711L81.9203 40.2131L80.5193 39.7721L79.9593 37.5581L79.1173 35.9781L81.4243 36.3251L81.3313 38.7711Z" fill="#8E684C"/>
<path d="M70.0253 47.7531L70.8383 50.106C70.8383 50.106 67.8913 49.606 67.9063 49.22C67.9203 48.833 66.1963 46.7041 66.1963 46.7041L67.6423 45.985L70.0253 47.7531Z" fill="#8E684C"/>
<path d="M56.2993 62.7021L53.1693 63.614L49.8563 62.5851L48.9053 60.485L52.4613 61.911L56.2993 62.7021Z" fill="#8E684C"/>
<path d="M54.8083 61.2271L53.6643 57.4431L52.8873 57.5421L53.1843 59.8751L54.8083 61.2271Z" fill="#8E684C"/>
<path d="M56.5663 59.1021L57.8293 59.795L56.6563 60.1371L55.5223 59.4491L55.0353 58.657L56.5663 59.1021Z" fill="#8E684C"/>
<path d="M47.0623 58.093L48.5583 59.441C48.5583 59.441 46.8683 59.763 46.7553 59.372C46.6423 58.981 45.2893 57.252 45.2893 57.252L45.3243 56.3521L47.0623 58.093Z" fill="#8E684C"/>
<path d="M38.8703 59.8431L43.7193 61.1901L43.9423 62.1011C43.9423 62.1011 41.5113 61.6221 41.1293 61.4781C40.7483 61.3331 39.2223 60.7601 39.2223 60.7601L38.1073 59.5571L38.8703 59.8431Z" fill="#8E684C"/>
<path d="M50.4393 27.1431L54.4013 28.0681L52.9213 29.6881L49.8753 28.4111L48.5273 26.5531L50.4393 27.1431Z" fill="#8E684C"/>
<path d="M66.3913 48.3871L67.6233 49.8521L65.1923 49.3731L63.5873 47.5061L66.3913 48.3871Z" fill="#8E684C"/>
<path d="M64.9843 44.722L64.9343 46.011L63.3093 44.6581L62.6063 42.826L64.9843 44.722Z" fill="#8E684C"/>
<path d="M70.6093 42.6171L71.5953 43.8151L68.6483 43.3151L68.1873 41.8801L70.6093 42.6171Z" fill="#8E684C"/>
<path d="M70.9153 37.9861L72.6943 38.6981L69.4543 39.091L68.7463 37.386L70.9153 37.9861Z" fill="#8E684C"/>
<path d="M60.4773 24.3021L60.9093 26.5121L60.0423 25.5761L58.9523 23.7291L60.4773 24.3021Z" fill="#8E684C"/>
<path d="M49.5333 23.8831L52.5893 24.9041L51.2903 25.1121L49.1173 24.6421L48.7653 23.7261L49.5333 23.8831Z" fill="#8E684C"/>
<path d="M69.0073 57.5131L66.5803 56.9061L65.6043 55.4491L67.7143 54.2411L67.6553 55.7861L70.0763 56.5231L69.0073 57.5131Z" fill="#8E684C"/>
<path d="M67.0063 59.243L68.2893 59.4211L67.4823 60.2931L66.3333 59.9911L67.0063 59.243Z" fill="#8E684C"/>
<path d="M41.6143 55.563L41.7083 56.4691L40.5643 56.0381L39.8353 54.8491L41.6143 55.563Z" fill="#8E684C"/>
</svg>
