<svg width="165" height="102" viewBox="0 0 165 102" fill="none" xmlns="http://www.w3.org/2000/svg">
<path d="M36.8872 55.8902L34.157 70.2893L35.2742 82.7017L36.0178 87.7899L40.1146 92.5067L40.2381 93.7483L34.4048 94.4933L32.0468 93.8711L32.1704 90.5201L31.1774 88.2864L29.8116 88.6585L30.3081 84.3139L28.8194 79.1014L25.9656 66.6889L32.4197 56.0153L36.8872 55.8902Z" fill="#CEB197"/>
<path d="M111.36 60.3592L109.622 73.0187L107.76 77.3641L105.898 88.2864L105.277 89.775L107.76 91.1409L110.242 95.1126L107.883 96.2299L104.905 95.982L102.794 95.6098L100.561 91.0166L101.679 88.6586L101.927 78.7292L101.802 62.9651L111.36 60.3592Z" fill="#CEB197"/>
<path d="M9.33287 25.3571L7.96627 27.7152L6.97334 58.0011L4.24315 69.047L0.147114 76.2469L2.75301 87.2934L1.0165 90.7687L2.00867 91.7616L6.22976 87.2934L7.71841 71.2814L6.97334 68.9242L9.33287 58.4969L10.0779 31.8112L9.33287 25.3571Z" fill="#CEB197"/>
<path d="M132.956 4.75339L138.79 3.13895L151.45 10.9589L151.699 12.0761L161.133 18.158L164.484 19.3995V21.1368L163.366 26.1022L161.629 28.2124L159.27 28.0873L158.153 29.4532H151.823L144.872 28.0873L143.01 29.701L140.156 34.4178L133.453 38.7632L124.268 44.968L119.056 55.1466L114.463 62.7172L110.118 64.7038L104.16 67.1861L103.54 72.1508L101.802 74.5096L100.686 86.1754L101.802 93.5004L103.416 94.7412L105.154 100.202L103.664 100.45L103.416 101.692L96.0925 100.202V94.9898L94.9768 93.7483L94.4803 92.0102L93.1137 91.513L94.9768 78.8535L93.9831 73.7638L91.9965 65.8203L75.8602 65.4489L58.7317 62.5929L50.7882 63.4615L34.6527 57.5047L33.164 58.3733L27.2057 71.5293L26.3371 73.3909L26.0892 76.4955L24.972 89.775L27.2057 91.513L27.9508 93.1267L31.0531 97.4714L30.6802 98.4643H22.3653L20.7524 95.3612L20.2552 93.1267L17.5242 90.7687L17.6478 88.535L18.145 76.7426L13.8003 71.2814L14.4211 66.8132L15.7869 61.725L9.33288 33.7978L8.95998 24.6121L18.5172 14.807L30.8045 10.0902H37.3836L43.0934 11.5789L63.5736 9.84163L76.8539 10.711L82.5636 9.59376L93.2373 6.2428L97.0862 5.49772L106.518 8.10436L114.96 9.46946L124.268 8.72513L126.75 8.22792L132.956 4.75339Z" fill="#DDC4AB"/>
<path d="M162.683 21.509L160.636 20.9496L159.332 21.509L160.45 21.8811L161.195 22.6262L162.683 21.509Z" fill="#594B40"/>
<path d="M110.118 64.7038L104.362 67.1015L104.223 60.9792L106.085 50.5527L107.761 49.2497L107.947 49.994L106.83 51.4842L106.458 57.441L109.623 55.9524L113.16 47.7603L122.842 38.0781L127.495 34.9136L131.033 29.7003L129.172 27.2809L126.937 21.8811L127.868 20.9496L131.964 25.0464L138.852 25.9772L145.929 24.6742L150.663 25.9839L150.707 25.8521H154.059L155.299 27.2854L157.099 27.8387L159.265 28.0933L158.153 29.4532H151.823L144.872 28.0874L143.01 29.7011L140.156 34.4179L133.453 38.7633L124.268 44.968L119.056 55.1467L114.463 62.7172L110.118 64.7038Z" fill="#CEB197"/>
<path d="M98.5756 52.1671L100.314 53.1601V57.6282L98.2034 60.4835L96.8383 59.7384L95.2246 55.2702L96.8383 53.0357L98.5756 52.1671Z" fill="#594B40"/>
<path d="M74.7444 22.5019L76.9797 23.7434L77.1025 26.1015L76.2338 27.0951L75.8609 29.4524L74.373 31.6869L72.0142 31.0661L69.6555 27.7152L71.6413 24.1156L74.7444 22.5019Z" fill="#594B40"/>
<path d="M50.914 41.7413H52.8999L53.8928 43.7264L51.9062 46.7052L47.9345 43.8507L47.4388 42.4856L50.914 41.7413Z" fill="#594B40"/>
<path d="M34.6527 57.5047L33.355 58.2632L35.3364 56.1389L38.8738 55.0216L50.789 56.6967L63.635 58.5583L73.8758 59.6763L83.5573 57.6282L87.4661 56.1389L87.2804 52.7871L87.094 49.8083L88.5841 48.6911L89.3292 51.1113L90.0735 52.5999L90.26 58.5583L91.3772 63.3994L91.9823 65.8203L75.8602 65.4489L58.7317 62.5929L50.7882 63.4615L34.6527 57.5047Z" fill="#CEB197"/>
<path d="M9.24077 31.5641C9.25949 31.5633 9.2707 31.5626 9.2707 31.5626L13.181 43.1064L16.7185 53.7179L18.0206 62.8415L17.4628 69.9163L20.2551 74.9424L21.1867 78.8535L21.001 86.2997L20.2551 91.1409L20.6281 94.1197L24.9098 92.8167L25.8413 93.0024L20.7673 95.3904L20.7523 95.3612L20.2551 93.1267L17.5242 90.7694L17.6477 88.5357L18.145 76.7433L13.8003 71.2822L14.4211 66.814L15.7862 61.7258L9.33211 33.7986L9.24077 31.5641Z" fill="#CEB197"/>
<path d="M15.6642 37.2723L18.0207 38.0174L19.883 40.0033C19.883 40.0033 19.3873 42.4856 19.3873 42.8585C19.3873 43.2299 19.6351 47.0796 20.0073 47.5746C20.3795 48.0718 20.7524 50.3048 20.7524 50.3048L17.7728 52.5393L14.0153 54.0601L10.8448 40.3388L15.6642 37.2723Z" fill="#594B40"/>
<path d="M16.4968 53.056L14.016 54.0609L10.8447 40.3388L11.9949 39.6072L13.1811 43.1064L16.4968 53.056Z" fill="#3F342C"/>
<path d="M47.8102 60.7935L56.933 61.5378C56.933 61.5378 72.3864 63.0272 73.1315 63.2129C73.8758 63.3994 85.7917 63.2129 85.7917 63.2129C85.7917 63.2129 88.9248 63.5664 91.47 63.8022L91.9965 65.8196L75.8602 65.4481L58.7317 62.5929L50.7882 63.4615L44.3087 61.069L47.8102 60.7935Z" fill="#BC9A7E"/>
<path d="M104.223 62.9336C108.301 62.4334 109.995 62.2821 109.995 62.2821L116.326 57.0696L121.216 50.9263L119.055 55.1466L114.462 62.7172L110.117 64.7031L104.16 67.1854L104.223 62.9336Z" fill="#BC9A7E"/>
<path d="M18.5172 14.807L30.8045 10.0902H37.3836L43.0934 11.5789L63.5736 9.84162L76.8539 10.711L82.5636 9.59375L93.2373 6.24279L97.0862 5.49771L106.518 8.10435L114.96 9.46945L121.698 8.93105L119.428 10.0887L114.091 11.0824L102.672 9.71656L95.5975 8.72362L82.5636 12.9447L65.4351 15.4263L53.147 14.682L36.7644 14.1855L25.2206 15.3027L18.5179 16.9157L12.9325 22.129L10.5804 22.9497L18.5172 14.807Z" fill="#EFD3B9"/>
<path d="M73.255 53.7808C73.255 53.4086 75.6138 45.4652 75.6138 45.4652L73.6279 40.5005C73.6279 40.5005 74.4966 38.1432 74.8687 37.8946C75.2417 37.6445 80.2056 33.7986 80.2056 33.7986L81.9443 29.5775L80.5785 23.8677L74.6201 12.0761L75.1136 10.5964L76.8539 10.711L82.5636 9.59377L93.2373 6.24281L97.0862 5.49773L102.426 6.9729L103.045 8.35222L101.058 12.5726L97.9563 19.6474V21.2604L97.832 25.4807L98.5763 29.5767L100.189 28.2116H102.672L103.292 26.8458L104.409 24.2392L106.396 24.6113L109.001 20.5153L111.732 13.4405L114.462 10.5859L115.101 9.45673L118.917 9.15271L118.681 10.0895L118.931 11.8275L123.275 11.0832L125.136 10.0895V8.55067L126.748 8.22793L132.955 4.75266L135.888 3.94168L139.285 6.48991L142.512 8.10363L145.368 9.59302L147.105 11.951L150.332 13.0675L154.428 17.9087L157.036 19.8945L156.912 22.1282L153.808 25.3556L153.366 29.4524H151.821L144.871 28.0866L143.008 29.7003L141.886 31.5544L137.424 30.694L132.831 29.5767L127.742 25.4807L125.383 23.867L124.019 24.3642L123.77 27.4673L122.654 30.819L123.275 34.4186L126.502 38.5146L129.72 41.2845L125.816 43.9219L123.151 42.1135L119.799 45.0923L114.959 50.5541L112.228 52.9122L108.132 53.7808L106.022 52.0443C106.022 52.0443 102.794 48.5675 102.422 48.1954C102.05 47.8225 95.0988 45.7138 95.0988 45.7138L90.1342 50.182L88.3969 54.278L85.5417 57.3811L80.0813 59.8635L75.488 57.7533C75.4895 57.7518 73.255 54.153 73.255 53.7808Z" fill="#594B40"/>
<path d="M112.23 52.9114L110.805 53.2132L113.16 47.7603L122.842 38.0781L125.003 36.6089L126.503 38.5146L129.721 41.2845L125.817 43.9219L123.153 42.1135L119.801 45.0915L114.96 50.5534L112.23 52.9114Z" fill="#3F342C"/>
<path d="M137.426 30.6947L132.833 29.5768L128.768 26.3052L126.937 21.8811L127.868 20.9496L131.964 25.0464L138.852 25.9772L145.929 24.6742L150.663 25.9839L150.707 25.8521H153.756L153.367 29.4532H151.823L144.872 28.0874L143.01 29.7011L141.887 31.5551L137.426 30.6947Z" fill="#3F342C"/>
<path d="M106.085 50.5526L107.761 49.2497L107.947 49.994L106.83 51.4842L106.756 52.6478L106.023 52.0435C106.023 52.0435 105.957 51.9724 105.852 51.8578L106.085 50.5526Z" fill="#3F342C"/>
<path d="M148.473 13.8126L146.487 12.9447L144.129 10.0887L141.025 10.7103L139.66 11.5789L135.564 9.59304L134.075 8.97226L133.454 10.0887L138.171 12.5718L140.778 13.3169L142.763 14.557H145.121H147.356H149.217L149.962 14.062L148.473 13.8126Z" fill="#3F342C"/>
<path d="M143.879 11.206L141.149 11.9503L141.894 12.9447L143.383 13.5647L144.749 13.1926L144.252 12.1996L144.5 11.206H143.879Z" fill="#191411"/>
<path d="M89.3292 51.1113L89.5516 51.5583L88.3984 54.2773L87.4227 55.3384L87.2804 52.7871L87.094 49.8083L88.5841 48.6911L89.3292 51.1113Z" fill="#3F342C"/>
<path d="M83.5573 57.6283L86.2635 56.5964L85.5432 57.3796L80.0828 59.8627L77.8483 58.8361L83.5573 57.6283Z" fill="#3F342C"/>
<path d="M103.045 8.35221L102.419 9.68061L95.5975 8.72362L82.5636 12.9447L75.5719 13.9571L74.6201 12.0761L75.1136 10.5964L76.8539 10.711L82.5636 9.59375L93.2373 6.24279L97.0862 5.49771L102.426 6.97288L103.045 8.35221Z" fill="#726156"/>
<path d="M114.091 11.0824L113.999 11.0712L114.463 10.5867L115.103 9.45749L116.39 9.35565L118.917 9.15271L118.683 10.0902L118.702 10.2243L114.091 11.0824Z" fill="#726156"/>
<path d="M18.5171 14.807L30.8045 10.0902H37.3836L43.0934 11.5789L53.436 10.7013L55.2579 11.4561L58.8568 12.2004L60.0983 11.8275L60.7198 12.6961L61.5877 19.896L59.4783 20.2682L53.0235 22.5019L48.3066 22.0054L44.2113 23.7434L43.7141 26.4736L46.1972 27.343L50.4168 26.4736L53.6435 28.4595L55.6301 29.5767L55.3822 34.6657L54.0164 38.0174L50.4168 37.2723L44.7078 37.7681L42.4733 41.617L42.8455 43.9743L47.5623 46.2088L46.5701 48.9397L41.9769 48.4432L34.0327 45.5887L29.9359 38.0174V33.052L29.1923 30.9418L25.4677 33.4249L20.6281 28.7081L15.6641 23.9913L18.1457 19.3995L17.9286 15.4113L18.5171 14.807Z" fill="#594B40"/>
<path d="M55.2579 11.4561L58.8568 12.2004L60.0983 11.8275L60.7198 12.6961L61.0156 15.159L53.147 14.682L36.7643 14.1855L25.2206 15.3028L18.5179 16.9157L18.0356 17.3665L17.9286 15.4113L18.5171 14.807L30.8045 10.0902H37.3836L43.0934 11.5789L53.436 10.7013L55.2579 11.4561Z" fill="#726156"/>
<path d="M137.301 8.22793L134.943 5.74559L132.957 2.76754L126.875 0.656616L125.758 2.27032L125.634 4.25619L131.344 7.6079L133.95 9.59377L137.301 8.22793Z" fill="#594B40"/>
<path d="M134.803 7.54501L133.701 5.86991L131.345 3.63542L128.241 2.39389L126.503 3.0139L127.124 4.38051L129.854 5.86915L132.29 6.4742L134.803 7.54501Z" fill="#3F342C"/>
</svg>
