<svg width="36" height="42" viewBox="0 0 36 42" fill="none" xmlns="http://www.w3.org/2000/svg">
<path d="M35.2208 7.06691L35.0204 6.65986L34.2899 6.16488L33.1333 5.62194L32.8498 4.82075L32.2374 4.15975L31.8599 3.02775L31.0568 2.55613L30.6811 2.13125L30.1148 1.0466L28.7461 0.338867L28.1337 1.51821L27.1425 0.480907L26.0572 0.763757L25.5383 1.70698L24.7359 1.89575L24.972 3.7361L23.5104 6.89597L21.3399 12.0382L20.6795 12.7933L17.0474 13.1229L12.2826 13.9253L10.6784 13.5004L8.27237 11.9909L6.99895 8.35878L4.21599 6.8019L3.22542 7.55636L3.17746 8.59489L1.71528 9.96301L0.725315 10.3873L0.300426 11.1424L0.583276 12.4158V14.0194L0.253082 15.6236L0.818773 16.803L1.80935 18.2178L3.46092 23.0299L4.73434 25.7661L7.75342 26.8034L8.36645 27.7952L11.8578 29.6817L14.0277 30.719L16.5278 33.2197L17.2355 33.5032L17.9906 36.4275V38.5028L16.9053 38.8336L15.1597 39.5413L14.9242 39.7301L15.1597 39.8709L15.9154 39.6821L16.5745 39.7774L19.0752 39.3046L20.6321 40.107L22.331 40.4845L23.6979 41.0502L24.1702 41.4278H24.3595L23.9814 40.8141L23.2263 40.2011L21.2458 39.2578L22.0002 39.0217L24.0287 39.1164L24.5004 38.9277L25.6323 39.3519L25.7738 39.0685L24.5477 38.4081L24.0287 37.9844L22.8494 38.2673L21.4813 38.362L19.5001 38.172L18.8397 36.9932L18.6036 33.3605L19.5469 32.8415L20.7268 31.0498L22.0476 28.6911L25.1614 27.5117L28.4159 25.7194L29.8314 23.7376L30.9166 22.6997L31.0568 21.2842L31.7658 19.822L31.4823 14.7745L31.6238 13.2182L30.3497 10.4814L30.0201 8.64163L30.4918 8.97182L31.0107 9.20732L32.2374 8.31143L32.9451 7.36759L34.178 7.19111L35.2208 7.06691Z" fill="#D7B127"/>
<path d="M31.6711 6.33579L32.7096 5.62806L32.8504 5.34521L33.1154 5.20071L33.1333 5.25053L34.2899 5.79346L35.0203 6.28844L35.2208 6.69549L34.178 6.8197L32.9451 6.99617L32.8658 7.10255L31.6711 6.52456V6.33579Z" fill="#654927"/>
<path d="M33.5932 5.65204L33.1339 5.47495L33.0632 5.61637L33.5932 5.65204Z" fill="#DE9C20"/>
<path d="M31.8353 4.84963L31.3409 4.49545L31.1761 4.11854L30.9166 4.04782L30.3971 4.33067L30.3024 4.56679L30.5618 4.70821L31.1515 4.82627L31.8353 4.84963Z" fill="#654927"/>
<path d="M30.8521 4.33375L31.0464 4.3688L31.2235 4.43091L31.1171 4.64366L30.8865 4.6787L30.7279 4.53728L30.6744 4.30731L30.8521 4.33375Z" fill="#654927"/>
<path d="M30.9585 4.29007L31.0285 4.39522L30.94 4.50159L30.8693 4.41366L30.9585 4.29007Z" fill="#DE9C20"/>
<path d="M5.96165 24.026L9.78253 24.5923L18.8871 24.6863L24.6897 22.8466L28.1804 19.4506L29.0296 14.3084L28.0863 10.4875L28.9822 7.51515L29.5485 6.90149L30.7279 6.94946L31.6711 6.52457L33.5803 6.89904L32.9451 6.99618L32.2374 7.94003L31.0107 8.83591L30.4918 8.60041L30.0201 8.27022L30.3497 10.11L31.6238 12.8468L31.4823 14.4031L31.7658 19.4506L31.0568 20.9128L30.9167 22.3283L29.8314 23.3662L28.4159 25.348L25.1614 27.1403L22.0476 28.3197L20.7268 30.6784L19.5469 32.4701L18.7629 32.9024L17.0523 33.0586L16.5278 32.8483L14.0277 30.3476L11.8578 29.3103L8.36645 27.4238L7.75342 26.432L4.73434 25.3947L3.53287 22.8116L5.96165 24.026Z" fill="#DE9C20"/>
<path d="M25.0199 19.7808L23.2269 21.4791L22.331 23.0827L21.199 24.7343L19.5948 25.6296L16.5751 26.1959L12.1879 26.0551L8.83929 25.4888L7.32913 24.3094L13.2732 22.2342L19.8777 19.5914L22.85 18.4594L22.6606 17.5162L21.3872 16.7611L21.4819 16.4315L22.708 16.7611L24.3601 17.2333L24.9252 17.8464L25.256 18.5541L25.2087 19.1678L25.0199 19.7808Z" fill="#654927"/>
<path d="M24.8779 19.1678L22.6139 21.1483L21.5759 23.3662L20.2546 24.8284L16.7172 25.348L11.2914 25.0645L6.99893 24.6864L7.4232 23.0827L12.0939 20.6294L15.5839 19.1204L17.2361 16.9026L19.9244 15.912L22.4724 17.0446L24.3122 17.6103L24.8785 18.5541L24.8779 19.1678Z" fill="#DE9C20"/>
<path d="M8.60319 13.5539L8.13157 14.1202L6.38592 11.997L4.26335 8.41163L3.25986 7.1585L3.52302 6.95743L4.49884 7.98675L6.10246 10.4395L7.42322 12.5153L8.60319 13.5539Z" fill="#DE9C20"/>
<path d="M3.05509 8.33847L3.46091 8.97733L4.45149 10.723L5.01841 12.6101L6.24449 15.3463L5.53614 16.2895L4.82903 15.393L4.12191 13.4592L3.46091 11.1946L2.52814 8.83038L3.05509 8.33847Z" fill="#DE9C20"/>
<path d="M1.63105 9.62726L2.56445 13.1764C2.56445 13.1764 3.93195 15.6291 3.97991 15.7712C4.02725 15.912 4.68764 17.234 4.68764 17.234L4.12194 18.0358L2.98933 14.8279L2.0461 12.7994L1.39371 9.72994L1.63105 9.62726Z" fill="#DE9C20"/>
<path d="M0.583276 13.648V12.0444L0.300426 10.7709L0.725315 10.0159L0.729612 10.0134L0.865506 11.478L1.66854 14.261L2.80054 17.2801L3.41358 19.7808L3.03973 21.4311L1.80935 17.8464L0.818773 16.4316L0.253082 15.2522L0.583276 13.648Z" fill="#DE9C20"/>
<path d="M29.1366 8.94229V9.68568L28.9589 9.96852L28.7461 9.11876L29.1366 8.94229Z" fill="#654927"/>
<path d="M28.8882 7.81028L28.7461 8.55305L28.3932 8.76519L28.1804 7.73956L28.8882 7.81028Z" fill="#DE9C20"/>
<path d="M28.4276 9.47293L28.1804 10.4285H27.8619L27.8262 9.22513L28.4276 9.47293Z" fill="#DE9C20"/>
<path d="M27.8619 8.44669L27.7199 8.69449L27.5785 8.62377L27.6848 8.05746L27.8619 8.44669Z" fill="#DE9C20"/>
<path d="M28.1804 12.5154L28.2874 13.4359L27.7555 13.683L27.6498 12.2682L28.1804 12.5154Z" fill="#DE9C20"/>
<path d="M29.3481 14.0015L28.9589 15.3813L28.7111 15.2399L28.6404 14.0015H29.3481Z" fill="#DE9C20"/>
<path d="M28.1448 14.0722L28.0747 14.5672L27.6498 14.4264V13.9665L28.1448 14.0722Z" fill="#DE9C20"/>
<path d="M28.2874 15.1692L27.8976 16.1247L27.2962 16.0891L27.437 14.78L28.2874 15.1692Z" fill="#DE9C20"/>
<path d="M28.8882 16.3725L28.3581 16.1247L27.7555 17.0446L27.7199 17.4689L27.8619 17.6103L28.7818 17.1153L28.8882 16.3725Z" fill="#DE9C20"/>
<path d="M27.5434 11.1356L27.1542 11.7726L26.907 11.5955L27.1191 11.0298L27.5434 11.1356Z" fill="#DE9C20"/>
<path d="M26.5885 6.04065L26.412 6.39422L26.0572 6.21775L26.2343 5.75781L26.5885 6.04065Z" fill="#DE9C20"/>
<path d="M29.5953 3.13962L29.1003 3.38742V3.63521L29.7373 3.35175L29.5953 3.13962Z" fill="#DE9C20"/>
<path d="M28.8525 2.99883L28.7461 3.52886L28.3932 3.56452V2.89246L28.8525 2.99883Z" fill="#DE9C20"/>
<path d="M28.2155 3.13965L27.8619 3.52887H27.5785L27.8263 2.92752L28.2155 3.13965Z" fill="#DE9C20"/>
<path d="M27.9683 3.77664L27.7555 3.95372L27.8262 4.09514L27.9683 3.77664Z" fill="#DE9C20"/>
<path d="M26.0572 4.37799L25.4208 4.55446V4.97934L26.1286 4.80226L26.0572 4.37799Z" fill="#DE9C20"/>
<path d="M3.30781 17.9995L2.56442 17.4332L1.78659 16.9382V17.2567L2.45866 17.716L3.16638 18.2823L3.30781 17.9995Z" fill="#654927"/>
<path d="M28.4633 18.4244L28.1804 19.4506L27.7912 19.2735L27.6848 18.0352L28.4633 18.4244Z" fill="#DE9C20"/>
<path d="M28.676 17.5396L28.1447 17.823L28.7111 18.0352L28.676 17.5396Z" fill="#DE9C20"/>
<path d="M25.3852 21.0776H26.1993L25.9865 21.6089L25.1023 21.4312L25.3852 21.0776Z" fill="#DE9C20"/>
<path d="M26.6942 19.2735L27.2962 19.5914L26.3757 20.2998L26.0572 20.087L26.6942 19.2735Z" fill="#DE9C20"/>
<path d="M27.3313 20.3705L27.0128 20.1934L26.5528 21.219L26.907 21.184L27.3313 20.3705Z" fill="#DE9C20"/>
<path d="M25.8801 20.5113L25.5973 20.6884L25.4565 20.547L25.8094 20.2641L25.8801 20.5113Z" fill="#DE9C20"/>
<path d="M25.3144 22.3867L24.9609 22.1746L24.2882 22.5988L24.0767 23.3773L24.8551 23.0594L25.3144 22.3867Z" fill="#DE9C20"/>
<path d="M6.49168 23.59L6.42098 24.1563L5.53615 23.9792L5.35968 23.4129L6.49168 23.59Z" fill="#DE9C20"/>
<path d="M5.39533 23.0594L4.72327 22.4574L4.47485 22.5638L4.75893 23.4836L5.39533 23.0594Z" fill="#DE9C20"/>
<path d="M23.7933 11.4541L23.3327 12.2682L23.1212 12.0554L23.3684 11.2419L23.7933 11.4541Z" fill="#DE9C20"/>
<path d="M22.9791 10.8177L22.9084 11.2776L22.5899 11.2063L22.6256 10.5692L22.9791 10.8177Z" fill="#DE9C20"/>
<path d="M29.3838 20.3705L29.0646 21.219L28.8168 21.0776L28.9226 20.0163L29.3838 20.3705Z" fill="#654927"/>
<path d="M28.7111 20.6884L27.9326 21.6089L27.3313 21.219L28.1804 20.1577L28.7111 20.6884Z" fill="#654927"/>
<path d="M28.4989 22.1746L27.9683 23.1301L27.7555 22.8466L27.9683 21.8911L28.4989 22.1746Z" fill="#654927"/>
<path d="M27.402 22.2809L26.5178 22.4223V22.1395L27.3663 21.7503L27.402 22.2809Z" fill="#654927"/>
<path d="M27.1191 22.9173L26.3407 23.1658L26.412 23.2715L27.1191 22.9173Z" fill="#654927"/>
<path d="M27.0478 23.3773L27.1542 23.625L26.8012 23.8021L26.4471 23.6958L27.0478 23.3773Z" fill="#654927"/>
<path d="M11.6278 29.1854L13.6747 29.1442L17.2121 29.8526L19.6182 29.4277L22.0242 27.6581L23.6512 26.5974L27.5434 25.1118L29.3118 23.4836L30.8459 22.3959L29.8314 23.3662L28.4159 25.348L25.1613 27.1403L22.0476 28.3197L20.7268 30.6784L19.5469 32.4701L18.6036 32.9891L18.7002 34.4703L17.6186 34.6142L17.2355 33.1317L16.5278 32.8483L14.0277 30.3476L11.8577 29.3103L11.6278 29.1854Z" fill="#654927"/>
<path d="M16.9053 38.4622L17.9906 38.1314V36.0561L17.2441 33.165L18.6104 33.0948L18.8398 36.6218L19.5001 37.8006L21.4813 37.9905L22.8494 37.8959L24.0288 37.613L24.5477 38.0367L25.7738 38.6971L25.6324 38.9805L24.5004 38.5562L24.0288 38.745L22.0003 38.6503L21.2458 38.8864L23.2263 39.8297L23.9814 40.4427L24.3596 41.0563H24.1702L23.6979 40.6788L22.3311 40.1131L20.6321 39.7356L19.0753 38.9332L16.5745 39.406L15.9154 39.3107L15.1597 39.4995L14.9242 39.3587L15.1597 39.1699L16.9053 38.4622Z" fill="#654927"/>
<path d="M23.1913 26.5974L22.6606 26.9153L22.4135 26.7388L23.0148 26.0311L23.1913 26.5974Z" fill="#654927"/>
<path d="M22.0593 27.1631L20.8566 27.6581L20.5737 27.3045L21.3516 26.7388L22.0593 27.1631Z" fill="#654927"/>
<path d="M21.5292 27.6937L21.2458 28.6142L20.6088 28.755L20.6444 27.7651L20.9629 27.8001L21.5292 27.6937Z" fill="#654927"/>
<path d="M22.8383 27.3045L22.4134 27.0924L22.272 27.3402L22.3778 27.6581L22.8383 27.3045Z" fill="#654927"/>
<path d="M21.7414 25.8897V26.2082H21.4573V25.9604L21.7414 25.8897Z" fill="#654927"/>
<path d="M19.7953 28.6493L19.0519 29.0034L18.769 28.6142L19.866 27.9415L19.7953 28.6493Z" fill="#654927"/>
<path d="M24.2181 26.0661L23.7576 26.2082L23.7225 25.9604L24.4296 25.4291L24.2181 26.0661Z" fill="#654927"/>
<path d="M25.1023 25.7489L25.0316 26.1375L24.5717 26.1018L24.6067 25.6419L25.1023 25.7489Z" fill="#654927"/>
<path d="M24.3239 18.8487L23.5448 18.955L22.7319 19.3086L22.272 19.6627L22.2007 19.3799L23.0855 18.7779L23.8289 18.4951L24.3239 18.8487Z" fill="#654927"/>
<path d="M24.4296 18.4244L23.4747 18.2116H22.5899L22.0593 18.3537L21.9178 18.1415L23.0148 17.9644L24.1468 18.0352L24.4296 18.4244Z" fill="#654927"/>
<path d="M21.3515 18.9907L21.2101 19.485L20.9629 19.2379L21.3515 18.9907Z" fill="#654927"/>
<path d="M22.272 18.8136L21.6707 18.4951L21.635 18.7072L21.8822 18.955L22.272 18.8136Z" fill="#654927"/>
<path d="M21.7758 20.1227L22.5542 20.1934L23.0505 20.1227L22.4841 20.4406L21.635 20.3705L21.5292 19.8392L21.7414 19.5207L21.7758 20.1227Z" fill="#654927"/>
<path d="M21.1044 17.5396L20.998 17.8581L21.2458 18.2823L20.6795 17.8937V17.2567L21.5292 17.0446L21.1044 17.5396Z" fill="#654927"/>
<path d="M20.2902 17.716L20.2195 18.0352L20.4673 18.3537L19.9367 18.1415L20.0424 17.6459L20.503 17.328L20.2902 17.716Z" fill="#654927"/>
<path d="M20.3609 18.9194L19.7596 19.0614L19.6889 18.7429L20.3609 18.9194Z" fill="#654927"/>
<path d="M20.2546 22.316L19.7596 23.2358L18.8041 23.4486L18.769 23.2002L19.5832 23.0594L20.1138 22.0682L20.2546 22.316Z" fill="#654927"/>
<path d="M19.264 22.5988L18.4862 22.7052L18.239 22.4574V22.1746L18.4862 22.3867L19.264 22.5988Z" fill="#654927"/>
<path d="M20.3265 21.6439L20.8209 21.1133L20.6444 21.6796L20.3265 21.6439Z" fill="#654927"/>
<path d="M3.06002 16.9026L2.63513 16.1247L1.50314 15.6648L1.53819 15.912L3.06002 16.9026Z" fill="#654927"/>
<path d="M2.59948 15.5584L2.52939 15.0272L3.13074 14.0372L3.23712 14.3557L2.59948 15.5584Z" fill="#654927"/>
<path d="M1.68023 14.5328V14.8507L0.653992 14.32L0.689044 14.1436L1.68023 14.5328Z" fill="#654927"/>
<path d="M2.35291 13.0466L2.14017 13.5416L1.96246 13.4358L2.14017 12.6931L2.35291 13.0466Z" fill="#654927"/>
<path d="M15.6909 39.1926L16.6465 39.0155L18.132 38.5562L18.3085 38.1314L17.9906 38.057V36.0561L17.2441 33.165L17.9875 33.1274L17.9556 34.6284L18.4511 36.9994L18.6627 38.167L19.0095 38.9461L16.5745 39.406L15.9154 39.3107L15.1597 39.4995L15.0416 39.4288L15.6909 39.1926Z" fill="#CC7E48"/>
<path d="M18.734 38.6971L20.2902 39.157L21.5993 39.6175L22.9791 40.0418L23.404 40.2896L23.7643 40.2662L23.9814 40.4427L24.3595 41.0563H24.1702L23.6979 40.6788L22.331 40.1131L20.6321 39.7356L19.0752 38.9332L18.801 38.986L18.734 38.6971Z" fill="#CC7E48"/>
<path d="M21.3515 38.3435L22.4842 38.3786H23.5448L24.041 38.2728L24.5004 38.5563L24.0287 38.745L22.0002 38.6503L21.3454 38.8551L20.6088 38.6263L21.3515 38.3435Z" fill="#CC7E48"/>
<path d="M33.9117 6.4065L34.3249 6.38867L35.1489 6.54977L35.2208 6.6955L34.9121 6.68197L34.4307 6.52456L33.5582 6.47722L32.567 6.50058L31.7695 6.5719L31.6711 6.52456V6.36346L32.8031 6.38314L33.9117 6.4065Z" fill="#DE9C20"/>
</svg>
