<svg width="58" height="68" viewBox="0 0 58 68" fill="none" xmlns="http://www.w3.org/2000/svg">
<path d="M53.6227 11.4122L53.3916 14.2322L52.7007 16.0162L51.0907 15.1522L50.6866 13.0242L53.6227 11.4122Z" fill="#FF5050"/>
<path d="M57.1316 11.1532L56.8056 10.4912L55.6176 9.68622L53.7366 8.80322L53.2756 7.50021L52.2796 6.42522L51.6656 4.58421L50.3596 3.81721L49.7486 3.12622L48.8276 1.36221L46.6016 0.211212L45.6056 2.12921L43.9936 0.442215L42.2286 0.902222L41.3846 2.43622L40.0796 2.74321L40.4636 5.73622L38.0866 10.8752L34.5566 19.2382L33.4826 20.4662L27.5756 21.0022L19.8266 22.3072L17.2176 21.6162L13.3046 19.1612L11.2336 13.2542L6.70763 10.7222L5.09663 11.9492L5.01863 13.6382L2.64064 15.8632L1.03064 16.5532L0.33963 17.7812L0.799637 19.8522V22.4602L0.262634 25.0692L1.18263 26.9872L2.79364 29.2882L5.47963 37.1142L7.55063 41.5642L12.4606 43.2512L13.4576 44.8642L19.1356 47.9322L22.6646 49.6192L26.7306 53.6862L27.8816 54.1472L29.1096 58.9032V62.2782L27.3446 62.8162L24.5056 63.9672L24.1226 64.2742L24.5056 64.5032L25.7346 64.1962L26.8066 64.3512L30.8736 63.5822L33.4056 64.8872L36.1686 65.5012L38.3916 66.4212L39.1596 67.0352H39.4676L38.8526 66.0372L37.6246 65.0402L34.4036 63.5062L35.6306 63.1222L38.9296 63.2762L39.6966 62.9692L41.5376 63.6592L41.7676 63.1982L39.7736 62.1242L38.9296 61.4352L37.0116 61.8952L34.7866 62.0492L31.5646 61.7402L30.4906 59.8232L30.1066 53.9152L31.6406 53.0712L33.5596 50.1572L35.7076 46.3212L40.7716 44.4032L46.0646 41.4882L48.3666 38.2652L50.1316 36.5772L50.3596 34.2752L51.5126 31.8972L51.0516 23.6882L51.2816 21.1572L49.2096 16.7062L48.6736 13.7142L49.4406 14.2512L50.2846 14.6342L52.2796 13.1772L53.4306 11.6422L55.4356 11.3552L57.1316 11.1532Z" fill="#C15729"/>
<path d="M51.3586 10.5682L53.0477 9.41724L53.2766 8.95723L53.7076 8.72223L53.7366 8.80324L55.6176 9.68623L56.8056 10.4912L57.1317 11.1532L55.4357 11.3552L53.4306 11.6422L53.3017 11.8152L51.3586 10.8752V10.5682Z" fill="#E5A85E"/>
<path d="M54.4846 9.45622L53.7376 9.16821L53.6226 9.39821L54.4846 9.45622Z" fill="#B54823"/>
<path d="M51.6256 8.15123L50.8216 7.57523L50.5536 6.96223L50.1316 6.84723L49.2866 7.30724L49.1326 7.69124L49.5546 7.92123L50.5136 8.11324L51.6256 8.15123Z" fill="#A53A1E"/>
<path d="M50.0267 7.31223L50.3427 7.36923L50.6307 7.47023L50.4577 7.81624L50.0827 7.87323L49.8247 7.64323L49.7377 7.26923L50.0267 7.31223Z" fill="#E5A85E"/>
<path d="M50.1996 7.24121L50.3136 7.41222L50.1696 7.58522L50.0546 7.44221L50.1996 7.24121Z" fill="#B54823"/>
<path d="M9.54662 39.3382L15.7606 40.2592L30.5676 40.4122L40.0046 37.4202L45.6816 31.8972L47.0626 23.5342L45.5286 17.3202L46.9856 12.4862L47.9066 11.4882L49.8246 11.5662L51.3586 10.8752L54.4636 11.4842L53.4306 11.6422L52.2796 13.1772L50.2846 14.6342L49.4406 14.2512L48.6736 13.7142L49.2096 16.7062L51.2816 21.1572L51.0516 23.6882L51.5126 31.8972L50.3596 34.2752L50.1316 36.5772L48.3666 38.2652L46.0646 41.4882L40.7716 44.4032L35.7076 46.3212L33.5596 50.1572L31.6406 53.0712L30.3656 53.7742L27.5836 54.0282L26.7306 53.6862L22.6646 49.6192L19.1356 47.9322L13.4576 44.8642L12.4606 43.2512L7.55061 41.5642L5.59662 37.3632L9.54662 39.3382Z" fill="#B54823"/>
<path d="M40.5416 32.4342L37.6256 35.1962L36.1686 37.8042L34.3276 40.4902L31.7186 41.9462L26.8076 42.8672L19.6726 42.6382L14.2266 41.7172L11.7706 39.7992L21.4376 36.4242L32.1786 32.1262L37.0126 30.2852L36.7046 28.7512L34.6336 27.5232L34.7876 26.9872L36.7816 27.5232L39.4686 28.2912L40.3876 29.2882L40.9256 30.4392L40.8486 31.4372L40.5416 32.4342Z" fill="#A53A1E"/>
<path d="M40.3107 31.4372L36.6286 34.6582L34.9406 38.2652L32.7916 40.6432L27.0387 41.4882L18.2146 41.0272L11.2336 40.4122L11.9236 37.8042L19.5197 33.8142L25.1956 31.3602L27.8826 27.7532L32.2547 26.1422L36.3987 27.9842L39.3907 28.9042L40.3116 30.4392L40.3107 31.4372Z" fill="#B54823"/>
<path d="M13.8427 22.3072L13.0757 23.2282L10.2366 19.7752L6.78465 13.9442L5.15265 11.9062L5.58064 11.5792L7.16765 13.2532L9.77565 17.2422L11.9236 20.6182L13.8427 22.3072Z" fill="#B54823"/>
<path d="M4.81964 13.8252L5.47964 14.8642L7.09065 17.7032L8.01265 20.7722L10.0067 25.2222L8.85464 26.7562L7.70465 25.2982L6.55464 22.1532L5.47964 18.4702L3.96265 14.6252L4.81964 13.8252Z" fill="#B54823"/>
<path d="M2.50362 15.9212L4.02162 21.6932C4.02162 21.6932 6.24562 25.6822 6.32362 25.9132C6.40062 26.1422 7.47462 28.2922 7.47462 28.2922L6.55461 29.5962L4.71262 24.3792L3.17862 21.0802L2.11761 16.0882L2.50362 15.9212Z" fill="#B54823"/>
<path d="M0.799637 22.4602V19.8522L0.33963 17.7812L1.03064 16.5532L1.03763 16.5492L1.25864 18.9312L2.56464 23.4572L4.40564 28.3672L5.40263 32.4342L4.79463 35.1182L2.79364 29.2882L1.18263 26.9872L0.262634 25.0692L0.799637 22.4602Z" fill="#B54823"/>
<path d="M52.5296 11.4122L50.2846 12.4482L48.5006 12.6202L49.3646 16.1302L50.8036 16.3612L52.2986 14.9802L53.1616 12.3902L53.4306 11.6422L52.5296 11.4122Z" fill="#CC371F"/>
<path d="M47.2366 14.8072V16.0162L46.9476 16.4762L46.6016 15.0942L47.2366 14.8072Z" fill="#A53A1E"/>
<path d="M46.8326 12.9662L46.6017 14.1742L46.0276 14.5192L45.6816 12.8512L46.8326 12.9662Z" fill="#B54823"/>
<path d="M46.0836 15.6702L45.6816 17.2242H45.1637L45.1057 15.2672L46.0836 15.6702Z" fill="#B54823"/>
<path d="M45.1636 14.0012L44.9326 14.4042L44.7026 14.2892L44.8756 13.3682L45.1636 14.0012Z" fill="#B54823"/>
<path d="M45.6816 20.6182L45.8556 22.1152L44.9906 22.5172L44.8186 20.2162L45.6816 20.6182Z" fill="#B54823"/>
<path d="M47.5806 23.0352L46.9476 25.2792L46.5446 25.0492L46.4296 23.0352H47.5806Z" fill="#B54823"/>
<path d="M45.6236 23.1502L45.5096 23.9552L44.8186 23.7262V22.9782L45.6236 23.1502Z" fill="#B54823"/>
<path d="M45.8557 24.9342L45.2216 26.4882L44.2437 26.4302L44.4726 24.3012L45.8557 24.9342Z" fill="#B54823"/>
<path d="M46.8326 26.8912L45.9706 26.4882L44.9906 27.9842L44.9326 28.6742L45.1636 28.9042L46.6596 28.0992L46.8326 26.8912Z" fill="#B54823"/>
<path d="M44.6456 18.3742L44.0126 19.4102L43.6106 19.1222L43.9556 18.2022L44.6456 18.3742Z" fill="#B54823"/>
<path d="M43.0926 10.0882L42.8056 10.6632L42.2286 10.3762L42.5166 9.62823L43.0926 10.0882Z" fill="#B54823"/>
<path d="M47.9826 5.37021L47.1776 5.77321V6.17621L48.2136 5.71521L47.9826 5.37021Z" fill="#B54823"/>
<path d="M46.7746 5.1412L46.6017 6.0032L46.0276 6.0612V4.9682L46.7746 5.1412Z" fill="#B54823"/>
<path d="M45.7386 5.37019L45.1636 6.0032H44.7026L45.1056 5.02521L45.7386 5.37019Z" fill="#B54823"/>
<path d="M45.3366 6.40622L44.9906 6.69421L45.1056 6.92421L45.3366 6.40622Z" fill="#B54823"/>
<path d="M42.2286 7.38422L41.1936 7.67122V8.36221L42.3446 8.07422L42.2286 7.38422Z" fill="#B54823"/>
<path d="M5.23065 29.5372L4.02165 28.6162L2.75665 27.8112V28.3292L3.84966 29.0762L5.00064 29.9972L5.23065 29.5372Z" fill="#A53A1E"/>
<path d="M45.1057 5.02522L42.8057 5.37021L40.9627 7.32622L38.9497 9.34122L38.7537 9.43121L40.4637 5.73622L40.1347 3.15921L40.5587 2.63022L41.3847 2.43622L42.2287 0.902222L43.9937 0.442215L45.6057 2.12921L46.6017 0.211212L48.8277 1.36221L49.7487 3.12622L50.3597 3.81721L51.6657 4.58421L51.6807 4.62921L50.6307 5.14122L47.9257 4.68022L45.1057 5.02522Z" fill="#B54823"/>
<path d="M44.9326 3.52922L42.8627 4.21922L40.2916 6.10822L40.4637 5.73622L40.0797 2.74321L41.3846 2.43622L42.2287 0.902222L43.9937 0.442215L45.6057 2.12921L46.6017 0.211212L48.8277 1.36221L49.7486 3.12622L50.3596 3.81721L51.6656 4.58421L52.2796 6.42522L53.2757 7.50021L53.4306 7.93622L51.6656 6.06122L49.5947 4.56522L47.0627 3.41322L44.9326 3.52922Z" fill="#CC371F"/>
<path d="M46.1417 1.43822L45.9727 1.41922L46.6017 0.211212L48.8277 1.36221L49.7487 3.12622L50.3597 3.81721L51.6657 4.58421L51.8357 5.09622L50.8217 4.50722L50.0547 4.27722L49.2867 3.16422L48.4817 1.70622L46.8697 0.901215L46.1417 1.43822Z" fill="#FF5050"/>
<path d="M43.6866 1.1312L42.5347 1.4772L41.6917 2.1292L41.5717 2.0972L42.2287 0.902206L43.9937 0.4422L44.6526 1.1312H43.6866Z" fill="#FF5050"/>
<path d="M46.1416 30.2282L45.6816 31.8972L45.0486 31.6092L44.8756 29.5952L46.1416 30.2282Z" fill="#B54823"/>
<path d="M46.4877 28.7892L45.6237 29.2502L46.5447 29.5952L46.4877 28.7892Z" fill="#B54823"/>
<path d="M41.1357 34.5432H42.4597L42.1137 35.4072L40.6757 35.1182L41.1357 34.5432Z" fill="#B54823"/>
<path d="M43.2646 31.6092L44.2436 32.1262L42.7466 33.2782L42.2286 32.9322L43.2646 31.6092Z" fill="#B54823"/>
<path d="M44.3007 33.3932L43.7827 33.1052L43.0347 34.7732L43.6107 34.7162L44.3007 33.3932Z" fill="#B54823"/>
<path d="M41.9406 33.6222L41.4807 33.9102L41.2516 33.6802L41.8257 33.2202L41.9406 33.6222Z" fill="#B54823"/>
<path d="M41.0206 36.6722L40.4456 36.3272L39.3516 37.0172L39.0076 38.2832L40.2736 37.7662L41.0206 36.6722Z" fill="#B54823"/>
<path d="M10.4086 38.6292L10.2936 39.5502L8.85463 39.2622L8.56763 38.3412L10.4086 38.6292Z" fill="#B54823"/>
<path d="M8.62566 37.7662L7.53267 36.7872L7.12866 36.9602L7.59067 38.4562L8.62566 37.7662Z" fill="#B54823"/>
<path d="M38.5466 18.8922L37.7976 20.2162L37.4536 19.8702L37.8556 18.5472L38.5466 18.8922Z" fill="#B54823"/>
<path d="M37.2226 17.8572L37.1076 18.6052L36.5896 18.4892L36.6476 17.4532L37.2226 17.8572Z" fill="#B54823"/>
<path d="M47.6386 33.3932L47.1196 34.7732L46.7166 34.5432L46.8886 32.8172L47.6386 33.3932Z" fill="#A53A1E"/>
<path d="M46.5447 33.9102L45.2787 35.4072L44.3007 34.7732L45.6817 33.0472L46.5447 33.9102Z" fill="#A53A1E"/>
<path d="M46.1996 36.3272L45.3366 37.8812L44.9906 37.4202L45.3366 35.8662L46.1996 36.3272Z" fill="#A53A1E"/>
<path d="M44.4157 36.5002L42.9777 36.7302V36.2702L44.3577 35.6372L44.4157 36.5002Z" fill="#A53A1E"/>
<path d="M43.9556 37.5352L42.6896 37.9392L42.8056 38.1112L43.9556 37.5352Z" fill="#A53A1E"/>
<path d="M43.8397 38.2832L44.0127 38.6862L43.4387 38.9742L42.8627 38.8012L43.8397 38.2832Z" fill="#A53A1E"/>
<path d="M18.7616 47.7292L22.0906 47.6622L27.8436 48.8142L31.7566 48.1232L35.6696 45.2452L38.3156 43.5202L44.6456 41.1042L47.5216 38.4562L50.0166 36.6872L48.3666 38.2652L46.0646 41.4882L40.7716 44.4032L35.7076 46.3212L33.5596 50.1572L31.6406 53.0712L30.1066 53.9152L30.2636 56.3242L28.5046 56.5582L27.8816 54.1472L26.7306 53.6862L22.6646 49.6192L19.1356 47.9322L18.7616 47.7292Z" fill="#A53A1E"/>
<path d="M27.3446 62.8162L29.1096 62.2782V58.9032L27.8956 54.2012L30.1176 54.0872L30.4906 59.8232L31.5646 61.7402L34.7866 62.0492L37.0116 61.8952L38.9296 61.4352L39.7736 62.1242L41.7676 63.1982L41.5376 63.6592L39.6966 62.9692L38.9296 63.2762L35.6306 63.1222L34.4036 63.5062L37.6246 65.0402L38.8526 66.0372L39.4676 67.0352H39.1596L38.3916 66.4212L36.1686 65.5012L33.4056 64.8872L30.8736 63.5822L26.8066 64.3512L25.7346 64.1962L24.5056 64.5032L24.1226 64.2742L24.5056 63.9672L27.3446 62.8162Z" fill="#E5A85E"/>
<path d="M37.5676 43.5202L36.7046 44.0372L36.3026 43.7502L37.2806 42.5992L37.5676 43.5202Z" fill="#A53A1E"/>
<path d="M35.7267 44.4402L33.7707 45.2452L33.3107 44.6702L34.5757 43.7502L35.7267 44.4402Z" fill="#A53A1E"/>
<path d="M34.8646 45.3032L34.4036 46.8002L33.3676 47.0292L33.4256 45.4192L33.9436 45.4762L34.8646 45.3032Z" fill="#A53A1E"/>
<path d="M36.9936 44.6702L36.3026 44.3252L36.0726 44.7282L36.2446 45.2452L36.9936 44.6702Z" fill="#A53A1E"/>
<path d="M35.2096 42.3692V42.8872H34.7476V42.4842L35.2096 42.3692Z" fill="#A53A1E"/>
<path d="M32.0446 46.8572L30.8356 47.4332L30.3756 46.8002L32.1596 45.7062L32.0446 46.8572Z" fill="#A53A1E"/>
<path d="M39.2377 42.6562L38.4886 42.8872L38.4316 42.4842L39.5816 41.6202L39.2377 42.6562Z" fill="#A53A1E"/>
<path d="M40.6756 42.1402L40.5606 42.7722L39.8126 42.7142L39.8696 41.9662L40.6756 42.1402Z" fill="#A53A1E"/>
<path d="M39.4097 30.9182L38.1427 31.0912L36.8207 31.6662L36.0727 32.2422L35.9567 31.7822L37.3957 30.8032L38.6047 30.3432L39.4097 30.9182Z" fill="#A53A1E"/>
<path d="M39.5816 30.2282L38.0286 29.8822H36.5896L35.7267 30.1132L35.4966 29.7682L37.2807 29.4802L39.1216 29.5952L39.5816 30.2282Z" fill="#A53A1E"/>
<path d="M34.5756 31.1492L34.3456 31.9532L33.9436 31.5512L34.5756 31.1492Z" fill="#A53A1E"/>
<path d="M36.0726 30.8612L35.0946 30.3432L35.0366 30.6882L35.4386 31.0912L36.0726 30.8612Z" fill="#A53A1E"/>
<path d="M35.2656 32.9902L36.5316 33.1052L37.3386 32.9902L36.4176 33.5072L35.0366 33.3932L34.8646 32.5292L35.2096 32.0112L35.2656 32.9902Z" fill="#A53A1E"/>
<path d="M34.1737 28.7892L34.0007 29.3072L34.4037 29.9972L33.4827 29.3652V28.3292L34.8647 27.9842L34.1737 28.7892Z" fill="#A53A1E"/>
<path d="M32.8497 29.0762L32.7347 29.5952L33.1377 30.1132L32.2747 29.7682L32.4467 28.9622L33.1957 28.4452L32.8497 29.0762Z" fill="#A53A1E"/>
<path d="M32.9646 31.0332L31.9866 31.2642L31.8716 30.7462L32.9646 31.0332Z" fill="#A53A1E"/>
<path d="M32.7916 36.5572L31.9866 38.0532L30.4326 38.3992L30.3756 37.9952L31.6996 37.7662L32.5626 36.1542L32.7916 36.5572Z" fill="#A53A1E"/>
<path d="M31.1806 37.0172L29.9156 37.1902L29.5136 36.7872V36.3272L29.9156 36.6722L31.1806 37.0172Z" fill="#A53A1E"/>
<path d="M32.9086 35.4642L33.7126 34.6012L33.4256 35.5222L32.9086 35.4642Z" fill="#A53A1E"/>
<path d="M4.82765 27.7532L4.13664 26.4882L2.29565 25.7402L2.35265 26.1422L4.82765 27.7532Z" fill="#A53A1E"/>
<path d="M4.0786 25.5672L3.9646 24.7032L4.9426 23.0932L5.1156 23.6112L4.0786 25.5672Z" fill="#A53A1E"/>
<path d="M2.58362 23.8992V24.4162L0.914612 23.5532L0.971619 23.2662L2.58362 23.8992Z" fill="#A53A1E"/>
<path d="M3.6776 21.4822L3.3316 22.2872L3.0426 22.1152L3.3316 20.9072L3.6776 21.4822Z" fill="#A53A1E"/>
<path d="M25.3696 64.0042L26.9236 63.7162L29.3396 62.9692L29.6266 62.2782L29.1096 62.1572V58.9032L27.8956 54.2012L29.1046 54.1402L29.0526 56.5812L29.8586 60.4372L30.2026 62.3362L30.7666 63.6032L26.8066 64.3512L25.7346 64.1962L24.5056 64.5032L24.3136 64.3882L25.3696 64.0042Z" fill="#CC7E48"/>
<path d="M30.3186 63.1982L32.8496 63.9462L34.9786 64.6952L37.2226 65.3852L37.9136 65.7882L38.4996 65.7502L38.8526 66.0372L39.4676 67.0352H39.1596L38.3916 66.4212L36.1686 65.5012L33.4056 64.8872L30.8736 63.5822L30.4276 63.6682L30.3186 63.1982Z" fill="#CC7E48"/>
<path d="M34.5756 62.6232L36.4176 62.6802H38.1426L38.9496 62.5082L39.6966 62.9692L38.9296 63.2762L35.6306 63.1222L34.5656 63.4552L33.3676 63.0832L34.5756 62.6232Z" fill="#CC7E48"/>
<path d="M55.0027 10.6832L55.6747 10.6542L57.0146 10.9162L57.1317 11.1532L56.6297 11.1312L55.8466 10.8752L54.4276 10.7982L52.8156 10.8362L51.5186 10.9522L51.3586 10.8752V10.6132L53.1996 10.6452L55.0027 10.6832Z" fill="#B54823"/>
</svg>
