<svg width="220" height="140" viewBox="0 0 220 140" fill="none" xmlns="http://www.w3.org/2000/svg">
<path d="M49.2111 78.1891L45.5651 97.4181L47.0571 113.994L48.0501 120.789L53.5211 127.088L53.6861 128.746L45.8961 129.741L42.7471 128.91L42.9121 124.435L41.5861 121.452L39.7621 121.949L40.4251 116.147L38.4371 109.186L34.6261 92.6101L43.2451 78.3561L49.2111 78.1891Z" fill="#CEB197"/>
<path d="M72.4181 85.6491L68.1071 92.7761L63.9621 95.9251L64.9591 99.9041L63.4661 102.058L60.3171 98.2471L57.6651 99.4061L57.3331 104.214L54.6821 104.047L53.5211 98.2471L50.3711 97.0851L48.3821 100.566L46.5581 99.7381L47.2231 95.7591L37.4421 90.4561L45.3991 77.5271L72.4181 85.6491Z" fill="#DD857C"/>
<path d="M57.3331 104.214L54.6821 104.047L53.5211 98.2471L50.3711 97.0851L48.3821 100.566L46.5581 99.7381L47.2231 95.7591L37.4421 90.4561L38.5991 88.5761L43.1621 90.2071L50.1241 90.9521L58.8261 91.2011L66.9281 83.9991L72.4181 85.6491L68.1071 92.7761L63.9621 95.9251L64.9591 99.9041L63.4661 102.058L60.3171 98.2471L57.6651 99.4061L57.3331 104.214Z" fill="#C46B66"/>
<path d="M148.665 84.1571L146.344 101.063L143.857 106.866L141.371 121.452L140.541 123.44L143.857 125.264L147.172 130.568L144.022 132.06L140.044 131.729L137.226 131.232L134.244 125.098L135.736 121.949L136.067 108.689L135.901 87.6371L148.665 84.1571Z" fill="#CEB197"/>
<path d="M12.4141 37.4141L10.5891 40.5631L9.26312 81.0081L5.61713 95.7591L0.147125 105.374L3.62714 120.126L1.30814 124.767L2.63312 126.093L8.27011 120.126L10.2581 98.7431L9.26312 95.5951L12.4141 81.6701L13.4091 46.0331L12.4141 37.4141Z" fill="#CEB197"/>
<path d="M177.505 9.89909L185.296 7.7431L202.203 18.1861L202.535 19.6781L215.133 27.8001L219.608 29.4581V31.7781L218.116 38.4091L215.796 41.2271L212.646 41.0601L211.154 42.8841H202.701L193.418 41.0601L190.931 43.2151L187.12 49.5141L178.169 55.3171L165.903 63.6031L158.942 77.1961L152.808 87.3061L147.006 89.9591L139.05 93.2741L138.222 99.9041L135.901 103.054L134.41 118.633L135.901 128.415L138.056 130.072L140.377 137.365L138.387 137.696L138.056 139.354L128.276 137.365V130.404L126.786 128.746L126.123 126.425L124.298 125.761L126.786 108.855L125.459 102.058L122.806 91.4501L101.257 90.9541L78.3831 87.1401L67.7751 88.3001L46.2271 80.3451L44.2391 81.5051L36.2821 99.0741L35.1221 101.56L34.7911 105.706L33.2991 123.44L36.2821 125.761L37.2771 127.916L41.4201 133.718L40.9221 135.044H29.8181L27.6641 130.9L27.0001 127.916L23.3531 124.767L23.5181 121.784L24.1821 106.036L18.3801 98.7431L19.2091 92.7761L21.0331 85.9811L12.4141 48.6861L11.9161 36.4191L24.6791 23.3251L41.0881 17.0261H49.8741L57.4991 19.0141L84.8491 16.6941L102.584 17.8551L110.209 16.3631L124.463 11.8881L129.603 10.8931L142.199 14.3741L153.472 16.1971L165.903 15.2031L169.217 14.5391L177.505 9.89909Z" fill="#DDC4AB"/>
<path d="M217.204 32.2751L214.47 31.5281L212.729 32.2751L214.222 32.7721L215.216 33.7671L217.204 32.2751Z" fill="#594B40"/>
<path d="M147.006 89.9591L139.319 93.1611L139.134 84.9851L141.621 71.0611L143.858 69.3211L144.107 70.3151L142.615 72.3051L142.118 80.2601L146.345 78.2721L151.069 67.3321L163.998 54.4021L170.212 50.1761L174.937 43.2141L172.451 39.9831L169.467 32.7721L170.71 31.5281L176.18 36.9991L185.379 38.2421L194.829 36.5021L201.152 38.2511L201.21 38.0751H205.686L207.343 39.9891L209.746 40.7281L212.639 41.0681L211.154 42.8841H202.701L193.418 41.0601L190.931 43.2151L187.12 49.5141L178.169 55.3171L165.903 63.6031L158.942 77.1961L152.808 87.3061L147.006 89.9591Z" fill="#CEB197"/>
<path d="M131.592 73.2171L133.914 74.5431V80.5101L131.095 84.3231L129.272 83.3281L127.117 77.3611L129.272 74.3771L131.592 73.2171Z" fill="#594B40"/>
<path d="M99.7671 33.6011L102.752 35.2591L102.916 38.4081L101.756 39.7351L101.258 42.8831L99.2711 45.8671L96.1211 45.0381L92.9711 40.5631L95.6231 35.7561L99.7671 33.6011Z" fill="#594B40"/>
<path d="M67.9431 59.2941H70.5951L71.9211 61.9451L69.2681 65.9231L63.9641 62.1111L63.3021 60.2881L67.9431 59.2941Z" fill="#594B40"/>
<path d="M46.2271 80.3451L44.4941 81.3581L47.1401 78.5211L51.8641 77.0291L67.7761 79.2661L84.9311 81.7521L98.6071 83.2451L111.536 80.5101L116.756 78.5211L116.508 74.0451L116.259 70.0671L118.249 68.5751L119.244 71.8071L120.238 73.7951L120.487 81.7521L121.979 88.2171L122.787 91.4501L101.257 90.9541L78.3831 87.1401L67.7751 88.3001L46.2271 80.3451Z" fill="#CEB197"/>
<path d="M12.2911 45.7031C12.3161 45.7021 12.3311 45.7011 12.3311 45.7011L17.5531 61.1171L22.2771 75.2881L24.0161 87.4721L23.2711 96.9201L27.0001 103.632L28.2441 108.855L27.9961 118.799L27.0001 125.264L27.4981 129.242L33.2161 127.502L34.4601 127.75L27.6841 130.939L27.6641 130.9L27.0001 127.916L23.3531 124.768L23.5181 121.785L24.1821 106.037L18.3801 98.7441L19.2091 92.7771L21.0321 85.9821L12.4131 48.6871L12.2911 45.7031Z" fill="#CEB197"/>
<path d="M20.8691 53.3261L24.0161 54.3211L26.5031 56.9731C26.5031 56.9731 25.8411 60.2881 25.8411 60.7861C25.8411 61.2821 26.1721 66.4231 26.6691 67.0841C27.1661 67.7481 27.6641 70.7301 27.6641 70.7301L23.6851 73.7141L18.6671 75.7451L14.4331 57.4211L20.8691 53.3261Z" fill="#594B40"/>
<path d="M21.9811 74.4041L18.6681 75.7461L14.4331 57.4211L15.9691 56.4441L17.5531 61.1171L21.9811 74.4041Z" fill="#3F342C"/>
<path d="M63.7981 84.7371L75.9811 85.7311C75.9811 85.7311 96.6181 87.7201 97.6131 87.9681C98.6071 88.2171 114.52 87.9681 114.52 87.9681C114.52 87.9681 118.704 88.4401 122.103 88.7551L122.806 91.4491L101.257 90.9531L78.3831 87.1401L67.7751 88.3001L59.1221 85.1051L63.7981 84.7371Z" fill="#BC9A7E"/>
<path d="M139.134 87.5951C144.58 86.9271 146.842 86.7251 146.842 86.7251L155.296 79.7641L161.827 71.5601L158.941 77.1961L152.807 87.3061L147.005 89.9581L139.049 93.2731L139.134 87.5951Z" fill="#BC9A7E"/>
<path d="M24.6791 23.3251L41.0881 17.0261H49.8741L57.4991 19.0141L84.8491 16.6941L102.584 17.8551L110.209 16.3631L124.463 11.8881L129.603 10.8931L142.199 14.3741L153.472 16.1971L162.47 15.4781L159.439 17.0241L152.312 18.3511L137.062 16.5271L127.615 15.2011L110.209 20.8381L87.3351 24.1521L70.9251 23.1581L49.0471 22.4951L33.6311 23.9871L24.6801 26.1411L17.2211 33.1031L14.0801 34.1991L24.6791 23.3251Z" fill="#EFD3B9"/>
<path d="M97.7781 75.3721C97.7781 74.8751 100.928 64.2671 100.928 64.2671L98.2761 57.6371C98.2761 57.6371 99.4361 54.4891 99.9331 54.1571C100.431 53.8231 107.06 48.6871 107.06 48.6871L109.382 43.0501L107.558 35.4251L99.6011 19.6781L100.26 17.7021L102.584 17.8551L110.209 16.3631L124.463 11.8881L129.603 10.8931L136.734 12.8631L137.56 14.7051L134.907 20.3411L130.765 29.7891V31.9431L130.599 37.5791L131.593 43.0491L133.747 41.2261H137.062L137.891 39.4021L139.382 35.9211L142.035 36.4181L145.515 30.9481L149.161 21.5001L152.807 17.6881L153.661 16.1801L158.756 15.7741L158.442 17.0251L158.775 19.3461L164.576 18.3521L167.062 17.0251V14.9701L169.215 14.5391L177.503 9.89807L181.42 8.81506L185.957 12.2181L190.266 14.3731L194.08 16.3621L196.4 19.5111L200.71 21.0021L206.18 27.4671L209.662 30.1191L209.496 33.1021L205.351 37.4121L204.761 42.8831H202.698L193.416 41.0591L190.929 43.2141L189.43 45.6901L183.472 44.5411L177.338 43.0491L170.542 37.5791L167.392 35.4241L165.57 36.0881L165.238 40.2321L163.747 44.7081L164.576 49.5151L168.886 54.9851L173.184 58.6841L167.97 62.2061L164.411 59.7911L159.935 63.7691L153.471 71.0631L149.824 74.2121L144.354 75.3721L141.536 73.0531C141.536 73.0531 137.226 68.4101 136.729 67.9131C136.232 67.4151 126.949 64.5991 126.949 64.5991L120.319 70.5661L117.999 76.0361L114.186 80.1801L106.894 83.4951L100.76 80.6771C100.762 80.6751 97.7781 75.8691 97.7781 75.3721Z" fill="#594B40"/>
<path d="M149.826 74.2111L147.923 74.6141L151.069 67.3321L163.998 54.4021L166.884 52.4401L168.887 54.9851L173.185 58.6841L167.971 62.2061L164.413 59.7911L159.937 63.7681L153.473 71.0621L149.826 74.2111Z" fill="#3F342C"/>
<path d="M183.474 44.5421L177.34 43.0491L171.912 38.6801L169.467 32.7721L170.71 31.5281L176.18 36.9991L185.379 38.2421L194.829 36.5021L201.152 38.2511L201.21 38.0751H205.282L204.763 42.8841H202.701L193.418 41.0601L190.931 43.2151L189.432 45.6911L183.474 44.5421Z" fill="#3F342C"/>
<path d="M141.621 71.061L143.858 69.321L144.107 70.315L142.615 72.305L142.517 73.859L141.537 73.052C141.537 73.052 141.449 72.957 141.309 72.804L141.621 71.061Z" fill="#3F342C"/>
<path d="M198.227 21.9971L195.574 20.8381L192.426 17.0241L188.281 17.8541L186.458 19.0141L180.988 16.3621L178.999 15.5331L178.17 17.0241L184.469 20.3401L187.95 21.3351L190.602 22.9911H193.75H196.735H199.22L200.215 22.3301L198.227 21.9971Z" fill="#3F342C"/>
<path d="M192.092 18.5161L188.446 19.5101L189.441 20.8381L191.429 21.6661L193.253 21.1691L192.59 19.8431L192.921 18.5161H192.092Z" fill="#191411"/>
<path d="M119.244 71.8071L119.541 72.4041L118.001 76.0351L116.698 77.4521L116.508 74.0451L116.259 70.0671L118.249 68.5751L119.244 71.8071Z" fill="#3F342C"/>
<path d="M111.536 80.5101L115.15 79.1321L114.188 80.1781L106.896 83.4941L103.912 82.1231L111.536 80.5101Z" fill="#3F342C"/>
<path d="M137.56 14.7051L136.725 16.4791L127.615 15.2011L110.209 20.8381L100.872 22.1901L99.6011 19.6781L100.26 17.7021L102.584 17.8551L110.209 16.3631L124.463 11.8881L129.603 10.8931L136.734 12.8631L137.56 14.7051Z" fill="#726156"/>
<path d="M152.312 18.3511L152.189 18.3361L152.808 17.6891L153.663 16.1811L155.382 16.0451L158.757 15.774L158.444 17.0261L158.47 17.205L152.312 18.3511Z" fill="#726156"/>
<path d="M24.6791 23.3251L41.0881 17.0261H49.8741L57.4991 19.0141L71.3111 17.8421L73.7441 18.8501L78.5501 19.8441L80.2081 19.3461L81.0381 20.5061L82.1971 30.1211L79.3801 30.6181L70.7601 33.6011L64.4611 32.9381L58.9921 35.2591L58.3281 38.9051L61.6441 40.0661L67.2791 38.9051L71.5881 41.5571L74.2411 43.0491L73.9101 49.8451L72.0861 54.3211L67.2791 53.3261L59.6551 53.9881L56.6711 59.1281L57.1681 62.2761L63.4671 65.2601L62.1421 68.9071L56.0081 68.2441L45.3991 64.4321L39.9281 54.3211V47.6901L38.9351 44.8721L33.9611 48.1881L27.4981 41.8891L20.8691 35.5901L24.1831 29.4581L23.8931 24.1321L24.6791 23.3251Z" fill="#594B40"/>
<path d="M73.7441 18.8501L78.5501 19.8441L80.2081 19.3461L81.0381 20.5061L81.4331 23.7951L70.9251 23.1581L49.0471 22.4951L33.6311 23.9871L24.6801 26.1411L24.0361 26.7431L23.8931 24.1321L24.6791 23.3251L41.0881 17.0261H49.8741L57.4991 19.0141L71.3111 17.8421L73.7441 18.8501Z" fill="#726156"/>
<path d="M184.199 12.2601L186.291 8.0751L189.605 7.41209L195.573 8.2411H199.22L201.707 4.2621L201.541 0.285095L198.888 3.59911L193.086 5.09109L185.959 2.9371L180.655 4.4281L178.5 8.2411V11.3901L184.199 12.2601Z" fill="#B28056"/>
<path d="M178.5 11.1751V8.2411L180.655 4.4281L185.959 2.9371L193.086 5.09109L198.888 3.59911L201.541 0.285095L201.566 0.906097L199.054 4.92509L195.407 5.7551L186.623 6.08611L182.644 9.5661L181.244 11.8091L179.304 11.5131L178.5 11.1751Z" fill="#E0B882"/>
<path d="M183.307 14.5391L180.158 11.2241L177.506 7.2471L169.384 4.4281L167.892 6.5831L167.727 9.23511L175.352 13.7111L178.832 16.3631L183.307 14.5391Z" fill="#594B40"/>
<path d="M179.972 13.6271L178.5 11.3901L175.353 8.4061L171.208 6.74811L168.887 7.5761L169.716 9.40111L173.363 11.3891L176.616 12.1971L179.972 13.6271Z" fill="#3F342C"/>
</svg>
