<svg width="133" height="74" viewBox="0 0 133 74" fill="none" xmlns="http://www.w3.org/2000/svg">
<path d="M17.0206 36.4255L17.8996 43.0665L20.3406 47.5605L22.8806 58.3035L24.5416 61.3315L24.6396 64.4575L27.3736 66.0195L31.2796 65.8245L25.8116 53.1275L22.0996 39.2575L17.0206 36.4255Z" fill="#C46B66"/>
<path d="M76.7957 46.5836L79.0417 50.0996L79.9207 51.1736L81.4836 66.2156L82.6557 67.6806L86.3667 68.0716H89.5907L89.4926 66.8016L86.1717 64.2616L86.2697 61.4296L87.7346 50.6856L82.8517 41.1136L76.7957 46.5836Z" fill="#C46B66"/>
<path d="M111.078 14.5476L114.888 12.3986L117.622 9.37056L126.412 7.51556L126.315 9.56657L122.896 12.0076L117.329 21.8726L111.078 14.5476Z" fill="#C46B66"/>
<path d="M105.024 7.02657L109.712 11.8126L114.107 15.6216L120.455 20.6026L121.726 24.3136L122.409 28.3176L126.512 32.6156L129.833 35.5456L131.688 37.9876L132.762 38.3786L132.469 39.5506L127.683 47.2666L126.903 46.5826L126.61 45.8986L121.629 46.3866L118.503 47.5586L113.425 48.5356L106.392 46.2886L100.043 43.9446L98.3826 45.2146L97.3086 47.8516L97.6996 50.0006L96.6256 56.7396L97.6026 63.5766C97.6026 63.5766 98.4816 64.8466 98.4816 65.1396C98.4816 65.4326 99.4586 68.5586 99.4586 68.5586L102.78 72.2696L102.095 73.3446L96.4306 72.4656L93.4026 71.3906L93.8906 69.6326L92.2306 66.4096L91.4496 63.5766L88.6166 55.8606L86.6636 53.8096L83.8316 49.1216L82.0736 45.2146L74.1616 49.0246L67.1306 52.0516L59.2186 51.9536L55.4086 50.4886L46.9116 47.8516L41.8336 45.5076L39.3916 49.0246L38.6106 50.9776L39.0986 55.8616L37.9266 57.2296L35.0936 61.0386L35.3866 63.7736L35.6796 68.1686L38.7076 71.6846V72.3686L31.0896 72.7596L31.2836 71.2946L30.1116 69.7316L30.4046 66.5086L29.2336 62.5046L24.7406 52.8346L23.0806 45.9976L20.3456 41.5046L15.4616 36.2306L14.1916 27.4396L12.1406 19.3326L16.3406 11.9096L25.2296 6.04956L41.9306 -0.00643921L57.4606 0.38456L64.2976 0.18856L73.6736 2.63056H93.9846L105.024 7.02657Z" fill="#DD857C"/>
<path d="M111.176 25.8776L109.711 27.0496L107.269 24.2166L107.562 22.2636L112.738 16.5986L120.454 13.0826L121.724 13.2776L121.138 15.8176L120.064 19.5286L117.915 24.5096L115.083 24.6076L111.176 25.8776Z" fill="#F9A4A0"/>
<path d="M13.1146 20.6036L10.8676 24.1196L7.05862 18.7476L1.00262 21.6786L3.73662 28.3196L6.08162 29.4916L7.35162 29.6866L5.39763 31.3476L2.66362 31.9336L0.416626 31.6406L1.97862 33.6916L6.27663 32.5196L9.59763 29.2966L11.0626 28.9056L14.1886 23.1436L13.1146 20.6036ZM8.81662 26.7566L6.47263 27.4406L4.03062 23.5336L4.32362 22.1666L6.47263 21.0916L8.42563 22.8496L9.50063 24.9006L8.81662 26.7566Z" fill="#C46B66"/>
<path d="M124.85 43.1645L121.919 42.9685L120.063 42.5785L119.281 41.6995L118.501 41.0155L118.109 41.7975L118.695 42.7745L120.356 43.6525H121.724L123.97 43.8475L124.85 44.8735H123.384L120.16 45.1665L113.568 44.1415L105.656 42.2365L101.555 36.9615L99.3566 29.0505L99.2106 35.0575L98.1856 38.5735L98.3316 41.6505L97.4526 44.8735L97.5866 47.1645L98.3806 45.2155L100.041 43.9455L106.39 46.2905L113.423 48.5365L118.501 47.5605L121.627 46.3885L126.608 45.8995L126.901 46.5835L127.682 47.2675L128.453 46.0255L126.705 43.9455L124.85 43.1645Z" fill="#AD5B59"/>
<path d="M43.9776 36.6686L47.6406 34.6176L50.4236 30.3696L48.9586 24.0696V21.1396L48.3726 20.8466V24.9486L47.3476 29.6366L43.5376 34.3246L42.3656 36.0836L43.9776 36.6686Z" fill="#C46B66"/>
<path d="M130.27 40.7716L128.951 42.2366L127.633 43.2616L127.926 44.2876L128.738 45.5646L132.468 39.5506L132.761 38.3796L131.874 38.0566L130.27 40.7716Z" fill="#F9A4A0"/>
<path d="M121.187 30.0765L120.308 30.8095L118.842 31.6885L116.792 30.9556L115.62 28.3186L115.913 26.5605H117.963H120.014L121.187 27.8795V30.0765Z" fill="#C46B66"/>
<path d="M119.135 15.5726L115.18 17.4776L112.396 19.6746L110.491 23.7766L109.635 26.9606L109.711 27.0496L111.176 25.8776L115.083 24.6076L116.981 24.5426L118.842 21.2866L119.867 17.4776L120.601 14.4006L119.135 15.5726Z" fill="#C46B66"/>
<path d="M44.1236 36.0836L51.0106 38.1346L59.6536 39.4526L70.4966 39.1596L78.9936 36.9616L78.2606 42.6756C78.2606 42.6756 64.1966 47.2176 63.7566 47.2176C63.3166 47.2176 52.0366 46.6316 51.5976 46.3386C51.1586 46.0456 43.6856 41.0646 43.6856 41.0646L42.5136 38.1346L42.3676 36.0836H44.1236Z" fill="#C46B66"/>
<path d="M81.4827 32.7136L81.3367 37.1086L85.4387 43.2616L89.9807 49.1226L93.2036 56.3016L95.1077 61.5756L96.8667 69.0466L95.2547 70.0726L94.0826 66.9956L91.1516 60.1096L90.1266 56.0086L87.4897 52.9316L84.5607 48.6826L82.9477 45.1666L80.6046 42.5296L77.0876 40.9186L77.9666 35.6436L81.4827 32.7136Z" fill="#C46B66"/>
<path d="M32.2776 3.49356L25.2256 6.05056L16.3366 11.9106L14.4476 15.2506L14.6766 21.5796L16.2876 30.5166L20.2436 38.5736L22.2946 43.1156L24.6386 48.0966L28.1546 54.2506L29.9126 61.2826L30.9386 66.7026L31.0846 69.7796L34.3086 68.6076L33.2826 65.3846L33.4296 57.1796L33.1366 50.0016L27.7156 43.9946L21.4156 31.3956L19.6576 19.8206L23.0276 9.41956L32.2776 3.49356Z" fill="#C46B66"/>
<path d="M16.3366 11.9106L12.1376 19.3336L14.1886 27.4406L15.4576 36.2306L20.3416 41.5046L23.0766 45.9976L24.7366 52.8346L29.2296 62.5036L30.4006 66.5086L30.1076 69.7316L31.2796 71.2946L31.0856 72.7586L31.3266 72.7466L32.8436 70.2196L34.8946 68.7536L34.3086 68.1686L31.9636 69.1936L31.6706 67.4356L31.2306 63.4806L30.2056 58.3526L30.7916 55.5686L30.0596 53.3706L27.5686 50.2936L26.3966 48.0966L26.5426 46.4856L24.4926 43.9946L23.0276 42.5296L19.8046 35.4976L17.8986 30.2226L15.4086 21.7256L16.3366 11.9106Z" fill="#AD5B59"/>
<path d="M77.6736 34.6175L76.5016 38.2805L74.4506 40.6255L69.6166 42.8225L62.4376 43.7015L53.9396 42.6755L48.0796 40.0396L44.4166 38.4276L42.3656 37.6945L42.8056 40.1855V41.9436L42.0076 45.5915L46.9076 47.8535L55.4046 50.4905L59.2146 51.9556L67.1266 52.0526L74.1576 49.0256L81.8676 45.3135L81.4826 44.2875L79.5786 41.5045L79.4326 36.3765L81.4826 32.7135L83.0946 28.1725L80.7506 32.1275L77.6736 34.6175Z" fill="#AD5B59"/>
<path d="M96.4276 72.4666L98.2197 72.7446L95.9867 70.5126L98.7707 69.1936L98.4787 68.4606L95.2547 69.0466L94.6687 66.1166L92.9106 61.2826L91.8846 57.0336L89.1017 54.1036L84.9997 48.2436L82.2157 42.3826L79.1396 39.7466L80.0797 46.1746L82.0696 45.2156L83.8277 49.1226L86.6597 53.8116L88.6127 55.8616L91.4456 63.5786L92.2277 66.4106L93.8877 69.6336L93.3987 71.3916L96.4276 72.4666Z" fill="#AD5B59"/>
<path d="M120.747 29.0506L119.721 28.3186H117.23L116.206 28.0256L116.938 29.3436H118.988H120.16L120.747 29.0506Z" fill="#AD5B59"/>
<path d="M108.243 10.3136L105.023 7.02657L93.9846 2.63157H73.6696L64.2936 0.189568L57.4566 0.385567L41.9266 -0.00543213L33.3866 3.09157L40.9016 2.24057L48.9596 1.65457L59.8006 1.50857L65.8086 2.09457L73.8656 4.58457H81.7776L91.0066 3.26657C91.0066 3.26657 95.6956 4.14557 96.1346 4.29157C96.5736 4.43757 103.46 7.36857 103.46 7.36857L107.709 10.0056L108.243 10.3136Z" fill="#F9A4A0"/>
</svg>
