<svg width="68" height="68" viewBox="0 0 68 68" fill="none" xmlns="http://www.w3.org/2000/svg">
<path d="M56.9536 21.9101L57.4826 20.4291L55.3676 12.9171L54.7326 8.57907L57.3766 1.27707L57.5896 0.536072H58.4366L61.3986 5.82709L61.5036 10.8001L60.3396 20.2181L60.9746 25.8251L57.4826 23.9211L56.9536 21.9101Z" fill="#896851"/>
<path d="M50.6066 58.8371L54.6256 60.1091L57.9056 61.9051L58.4366 62.7521L57.6946 63.3871V64.6581H54.4146L49.5476 64.4461L45.6316 62.9631L45.2096 60.4241L50.6066 58.8371Z" fill="#7C5D48"/>
<path d="M37.1676 6.88507L35.1576 9.31906L36.6396 13.1281L41.7176 16.7271L49.2296 23.7091L49.7586 24.9791L48.9126 27.2011L46.4796 30.1631L43.7266 29.8461H40.7656L26.6926 26.6711L17.0636 28.7881L6.58962 32.2801L1.72262 45.5061L0.557617 57.2511L5.31962 61.6951L7.22262 62.7521L6.69562 64.8691L11.0326 65.2921L15.2656 66.0311L24.3646 67.8311H26.9046L27.1166 66.7741H27.9616V64.5511L31.5596 63.3871L35.4746 61.9051L35.5806 62.6471L39.7076 64.0231L41.4006 65.6091L46.0566 66.2441L50.8186 67.1971L52.7216 66.2441L52.4046 64.7631L50.7116 62.7521L46.5856 62.2241L51.7686 59.6851L54.8376 55.9821L58.0126 51.3251L58.7526 47.3041L60.3396 46.2471L60.4446 44.7651H64.4676L67.0056 42.1191L67.8516 39.2631L66.0536 35.6661L62.4556 26.9891L59.7056 23.4981L54.5206 19.7951L50.0746 14.1871L43.5166 9.74207L38.2266 7.41406L37.1676 6.88507Z" fill="#AA8161"/>
<path d="M66.9796 39.3951L67.7836 39.1271L67.8516 39.2631L67.0606 41.9341H66.0276L65.7106 41.0611L66.4236 40.1091L66.9796 39.3951Z" fill="#C99673"/>
<path d="M59.2826 41.5381L59.9966 43.1251L61.1076 43.8391L62.3776 43.7601L63.1706 43.4431L64.9946 42.6501L66.0276 41.9341L65.3136 43.1251L63.6476 43.9981L63.9156 44.7651H60.8286L60.1556 44.2371L58.7266 42.8071L58.4086 40.4271H59.2036L59.2826 41.5381Z" fill="#896851"/>
<path d="M44.5756 59.8971L46.2676 58.9451L52.9336 52.7021L55.6846 47.9391L57.9076 46.3531L59.3876 45.0831L60.5516 44.1311C60.5516 44.1311 60.6986 44.3891 60.9046 44.7651H60.4446L60.3396 46.2471L58.7526 47.3041L58.0126 51.3251L54.8376 55.9811L51.7696 59.6841L46.5856 62.2231L44.0466 61.0591L42.8816 60.4251L41.8236 59.3661V58.8371L42.5646 58.9431L44.5756 59.8971Z" fill="#896851"/>
<path d="M19.7096 57.2511V54.0761L18.9696 50.9021L19.8156 52.3841L21.7206 55.6641L24.6836 57.0401L30.5016 57.4631L34.8406 57.0401H36.1096V58.9441L35.4746 60.8491L35.0906 62.0521L31.5596 63.3871L27.9616 64.5511L27.6446 63.5991L25.4246 62.2241L21.6156 61.8011L17.8046 61.4841L14.3146 61.1661L13.7856 60.5311L16.5356 59.6851L19.7096 57.2511Z" fill="#896851"/>
<path d="M0.557617 57.2511L1.72262 45.5061L6.58962 32.2801L12.2506 30.3921L11.9846 31.0101L9.65762 32.1741L7.54162 34.1321L4.52662 44.1301L3.67862 48.8381L3.89062 53.0721L2.72762 56.4041L5.63662 56.8281L8.38862 57.7791L10.7156 58.2021V59.2611L7.96562 61.4841L10.7156 62.8591L11.5626 64.0241H17.5946L22.7786 64.7631L25.5296 65.9281L25.6236 67.8311H24.3646L15.2656 66.0311L11.0326 65.2921L6.69562 64.8691L7.22262 62.7521L5.31962 61.6951L0.557617 57.2511Z" fill="#896851"/>
<path d="M27.8486 66.7741H27.1166L26.9046 67.8311H26.5616L26.4826 66.5621L25.5296 64.7631L26.9046 65.2921L27.8486 66.7741Z" fill="#7C5D48"/>
<path d="M36.5326 61.0601L38.9676 62.3291L41.7176 63.1761L43.7276 64.1291L44.9976 63.2811L46.6916 62.8591H48.1716L49.4416 63.1761L46.9026 63.5991L46.3736 64.5521L47.1146 65.1871L51.0296 66.9851L51.1046 67.0541L50.8186 67.1971L46.0566 66.2441L41.4006 65.6091L39.7076 64.0231L35.5806 62.6471L35.4746 61.9051L35.2566 61.9891L35.3696 61.4841V60.0021L36.5326 61.0601Z" fill="#896851"/>
<path d="M50.2876 21.1701L48.3836 20.3241L45.2096 17.8901L41.4006 15.0331L37.8016 12.3881L37.1686 9.74207L37.3796 8.79007L41.6136 12.0691L46.3736 14.5041L48.3836 17.6781L50.2876 21.1701Z" fill="#C99673"/>
<path d="M46.4796 30.1631L48.9126 27.2011L49.7586 24.9791L49.6706 24.7671L49.2296 23.7091L46.9106 21.5531L49.0186 21.4881L51.2676 24.0521L50.4206 30.7191L49.8656 33.0201L51.4516 36.8301L52.6166 39.2621L54.2036 40.7451L56.1066 42.0141L58.2246 43.2841L58.1176 44.0241L54.5216 42.3311L51.6636 39.4741L48.2786 35.5591L47.2196 33.7611L45.9746 30.1051L46.4796 30.1631Z" fill="#896851"/>
<path d="M55.4746 20.4761L53.8866 22.4401L53.1446 24.3441L52.8276 22.8631L52.6166 20.9581L53.5506 18.5711L54.5206 19.7951L55.4746 20.4761Z" fill="#896851"/>
<path d="M51.4806 15.9591L49.7596 14.7161L43.8076 11.1451L40.8716 9.63708L37.4596 8.13007L36.1106 8.16507L37.1676 6.88507L38.2266 7.41406L43.5166 9.74207L50.0746 14.1871L51.4806 15.9591Z" fill="#C69C77"/>
<path d="M49.8566 62.644L50.7106 62.752L52.4036 64.763L52.7206 66.244L52.3256 66.442C51.8726 65.811 51.1336 64.869 51.1336 64.869L49.7586 64.022L49.8566 62.644Z" fill="#C69C77"/>
<path d="M14.9206 29.9511L14.2766 29.7181L17.0636 28.7881L26.6926 26.6711L40.7656 29.8461H42.1086L39.7596 30.8241L36.2686 29.9511L28.8896 28.6021L19.4456 29.7931L14.9206 29.9511Z" fill="#C69C77"/>
<path d="M56.6526 21.3181L59.7056 23.4981L62.4556 26.9891L66.0536 35.6661L66.9886 37.5361L66.3436 37.4111L65.1546 35.5861L63.4876 30.5861L61.1076 27.9681L58.9816 27.5091L56.7026 26.7391L57.5506 24.4321L57.3766 23.1281L56.6526 21.3181Z" fill="#C69C77"/>
<path d="M61.6626 32.6501L61.1856 32.9671L60.3126 32.0151L58.8856 31.5391L57.6956 30.4281L57.3766 29.3171L56.7426 27.9681L58.0926 27.4921L59.3616 27.8891L60.5516 29.0781L60.9486 30.4281L61.2666 31.6971L61.6626 32.6501Z" fill="#896851"/>
<path d="M60.3936 31.0631L60.0757 29.8731L59.6786 29.0001L58.5686 28.6021L58.0927 29.0781V29.8731L59.0426 30.1901L60.3936 31.0631Z" fill="#C99673"/>
<path d="M58.7166 28.8021L59.5496 29.1181L59.7076 29.5151L59.5986 29.9821L59.2416 30.1011L58.5476 29.9021L58.2496 29.4751V29.1381L58.7166 28.8021Z" fill="#896851"/>
<path d="M58.8266 29.1781L59.2036 29.2581L59.2236 29.5551L58.9456 29.6351L58.7056 29.5351L58.6486 29.2971L58.8266 29.1781Z" fill="#6D5341"/>
<path d="M63.4486 41.3001L63.7246 41.7371L63.3686 42.0141L62.8916 41.7771L62.9326 41.1821L63.4486 41.3001Z" fill="#896851"/>
<path d="M62.4556 41.8951L62.5356 42.3711L62.2186 42.6091L61.9016 42.3311L61.8606 41.9341L62.4556 41.8951Z" fill="#896851"/>
<path d="M62.5756 40.7041L62.4556 41.0221L61.9806 40.9441V40.5071L62.4156 40.2291L62.5756 40.7041Z" fill="#896851"/>
<path d="M61.4236 41.2201L61.5046 41.3801L61.2666 41.5771L61.1456 41.3001L61.2256 41.0221L61.4236 41.2201Z" fill="#896851"/>
<path d="M63.4086 40.3471L63.3686 40.6251L63.1706 40.6651L63.0116 40.3881V40.1491L63.2496 40.0711L63.4086 40.3471Z" fill="#896851"/>
<path d="M61.4236 39.8311L61.5046 40.2691L61.1856 40.3091L60.9486 39.9901V39.7921L61.4236 39.8311Z" fill="#896851"/>
</svg>
