<svg width="111" height="114" viewBox="0 0 111 114" fill="none" xmlns="http://www.w3.org/2000/svg">
<path d="M101.929 11.8487L101.457 10.7897L97.4576 8.67169L96.3997 7.25967L95.2216 4.3187L91.3397 1.73068L87.6927 0.0836792L86.8687 0.670685H83.9286L83.8097 1.84769L80.9866 2.90768L79.1057 7.73068L79.6927 11.8487L82.5167 21.4957L86.5167 27.0247L86.3997 29.7307L84.8687 31.2597L75.6927 25.3777L63.5767 14.0837L64.0457 12.5537L61.5757 11.8487L47.5757 16.7907L45.5767 16.5537L39.5757 13.4957L33.6936 7.96469L30.9876 2.67068V1.14169L22.7527 0.200684H11.6936L3.34064 5.14169L0.163635 19.9657L4.28165 53.9657L3.57565 55.1427L4.04666 56.6707L19.8106 59.7307L20.2827 66.5527L12.6336 69.9657L10.8697 70.0847L10.2816 71.0247L11.2227 76.4367L20.3997 79.1427L21.6936 80.4357L28.5167 78.3187L35.8106 86.3197L49.3397 94.4357L55.3406 95.6127L60.0457 98.6717V103.496L54.3987 104.908L50.7516 104.554L49.4576 106.201L47.5757 106.907L47.2227 108.084L48.9876 107.613L51.6927 107.259L52.9876 107.731L57.5757 107.613L63.2227 109.966L72.0457 111.73L72.9876 112.672L74.6336 112.79L75.1046 113.613L75.6927 112.32L73.9276 109.496L68.6336 108.084L63.9286 106.437H72.2816L77.1046 106.201L78.9876 106.907H80.1636L80.9866 107.613L80.7516 105.613L76.8697 103.848L73.3397 104.319L66.1627 103.614L64.8697 102.671V97.7297L74.2816 94.3187L90.3987 87.8477L101.576 78.0837L106.752 72.0837L110.869 53.1417L107.811 44.7897L103.34 37.2597L100.751 34.4357L98.7516 29.3777L95.6936 25.9657L93.6936 22.5537L93.4566 16.3187L93.1046 13.9647L96.5167 12.7907L97.5757 14.6707L97.3397 22.0837L98.5167 26.2017L100.869 25.8477L100.045 22.7897L100.988 17.9657L100.282 12.0837L101.929 11.8487Z" fill="#4E455B"/>
<path d="M76.8697 103.848L73.3397 104.319L66.1627 103.614L64.8697 102.671V97.7297L66.3867 97.1797L57.9996 97.3417L60.0457 98.6717V103.496L54.3987 104.908L50.7516 104.554L49.4576 106.201L47.5757 106.907L47.2227 108.084L48.9876 107.613L51.6927 107.259L52.9876 107.731L57.5757 107.613L63.2227 109.966L72.0457 111.73L72.9876 112.672L74.6336 112.79L75.1046 113.613L75.6927 112.32L73.9276 109.496L68.6336 108.084L63.9286 106.437H72.2816L77.1046 106.201L78.9876 106.907H80.1636L80.9866 107.613L80.7516 105.613L76.8697 103.848Z" fill="#E5A85E"/>
<path d="M61.9676 97.2647L57.9996 97.3417L60.0456 98.6717V103.388L62.2816 104.436L61.8106 102.907V97.8477L61.9676 97.2647Z" fill="#CC7E48"/>
<path d="M63.2216 108.525L58.1036 106.318L53.5156 106.407L48.9276 106.936L47.8146 107.925L48.9876 107.613L51.6926 107.259L52.9876 107.731L57.5756 107.613L63.2226 109.966L72.0456 111.73L72.9876 112.672L74.6336 112.79L75.1046 113.613L75.6926 112.32L75.0156 111.236L71.0756 109.671L63.2216 108.525Z" fill="#CC7E48"/>
<path d="M80.3397 106.318L77.4277 105.789L73.8097 105.701L69.9277 105.436H65.4277H63.7507L64.1927 106.407L64.3747 106.437H72.2817L77.1047 106.201L78.9877 106.907H80.1637L80.6847 107.354L80.3397 106.318Z" fill="#CC7E48"/>
<path d="M101.949 35.7407L100.751 34.4357L98.7516 29.3777L95.6936 25.9657L93.6936 22.5537L93.4566 16.3187L93.1046 13.9647L96.5166 12.7907L97.5756 14.6707L97.3396 22.0837L98.5166 26.2017L100.869 25.8477L100.045 22.7897L100.988 17.9657L100.282 12.0837L101.929 11.8487L101.457 10.7897L97.4576 8.67169L96.3996 7.25967L95.2216 4.3187L91.3396 1.73068L87.6926 0.0836792L86.8686 0.670685H83.9286L83.8096 1.84769L80.9866 2.90768L79.1056 7.73068L79.6926 11.8487L82.5166 21.4957L86.5166 27.0247L91.6926 28.6717L96.1626 31.4957L99.6926 36.4367L100.869 40.2007L101.81 38.0837L101.949 35.7407Z" fill="#C67F99"/>
<path d="M94.9866 36.9077L95.4576 35.7297L91.4566 32.6717L87.2216 29.6127L86.4387 28.8287L86.3997 29.7307L84.9266 31.2027L85.5757 32.2017L87.9276 34.3187L91.6927 35.4967L94.9866 36.9077Z" fill="#3A3147"/>
<path d="M108.163 53.1427L106.752 48.2017L102.751 42.3187L95.9266 40.9067L92.8687 41.6127L88.6336 41.1427L81.5757 39.2597L73.3397 33.1417L64.3987 21.1417L62.7506 15.2597L63.8217 13.2857L64.0457 12.5537L61.5757 11.8487L47.5757 16.7907L45.5767 16.5537L39.5757 13.4957L33.6936 7.96469L30.9876 2.67068V1.14169L22.7527 0.200684H11.6936L3.34064 5.14169L0.163635 19.9657L4.28165 53.9657L3.57565 55.1427L4.04666 56.6707L19.8106 59.7307L20.2827 66.5527L12.6336 69.9657L10.8697 70.0847L10.2816 71.0247L11.2227 76.4367L20.3997 79.1427L21.6936 80.4357L28.5167 78.3187L35.8106 86.3197L49.3397 94.4357L55.3406 95.6127L60.0457 98.6717V98.7427L64.8697 98.4687V97.7297L74.2816 94.3187L90.3987 87.8477L101.576 78.0837L106.752 72.0837L109.986 57.2077L108.163 53.1427Z" fill="#3A3147"/>
<path d="M45.5767 16.5537L39.5757 13.4957L33.6937 7.96469L30.9877 2.67068V1.14169L22.7527 0.200684H11.6937L3.34067 5.14169L0.163666 19.9657L4.28168 53.9657L3.57568 55.1427L4.04669 56.6707L19.8107 59.7307L20.2097 65.5027L30.0457 66.2587L33.5757 63.7887L24.7507 55.6707L25.8097 48.2597L27.7507 37.4947L38.3387 24.9647L49.4567 19.6707L47.9797 16.6467L47.5757 16.7907L45.5767 16.5537Z" fill="#4E455B"/>
<path d="M109.748 58.2997L108.163 54.5537L103.457 45.6127L98.7507 43.9657L94.9857 42.5547L89.8097 45.8487L79.6917 41.8487L69.5747 34.5547L63.4567 33.8497L46.2807 41.3787L41.1037 50.5547L35.6917 59.4957L28.6327 65.3777V72.6717L32.3977 80.2017L47.9267 90.5547C47.9267 90.5547 58.5157 94.0837 59.2207 94.0837C59.9267 94.0837 76.1617 91.0247 76.1617 91.0247L88.1617 84.6717L96.6317 79.9647L100.407 79.1027L101.574 78.0827L106.751 72.0827L109.748 58.2997Z" fill="#4E455B"/>
<path d="M102.282 73.3777L90.7516 79.0237L78.2816 79.9647L75.6936 88.9067L77.4377 90.3497L88.1627 84.6717L96.6327 79.9647L100.409 79.1027L101.576 78.0837L106.752 72.0837L106.966 71.0937L102.282 73.3777Z" fill="#271F35"/>
<path d="M68.8697 77.8477L59.2227 76.4357L49.5757 69.6127L42.0457 60.2007L40.8437 50.9857L35.6937 59.4957L28.6347 65.3777V72.6717L32.3997 80.2017L47.9287 90.5547C47.9287 90.5547 58.5177 94.0837 59.2227 94.0837C59.9287 94.0837 76.1637 91.0247 76.1637 91.0247L78.2077 89.9417L78.9867 88.4357L81.8097 80.2017L78.7507 78.7907L68.8697 77.8477Z" fill="#655D72"/>
<path d="M97.5757 14.6707L97.3397 22.0837L98.5167 26.2017L100.869 25.8477L100.045 22.7897L100.988 17.9657L100.282 12.0837L100.628 12.0347L99.8097 10.6707L99.5777 9.79468L97.4577 8.67169L96.3997 7.25967L96.3417 7.11768L96.1627 8.55368L96.3727 12.8397L96.5167 12.7907L97.5757 14.6707Z" fill="#BC5B82"/>
<path d="M98.5167 26.2017L99.1497 26.1057L98.5167 23.9647L98.2806 17.8477V14.4357L97.4566 11.3777L97.2886 8.44769L96.3997 7.25967L96.3416 7.11768L96.1627 8.55368L96.3727 12.8397L96.5167 12.7907L97.5757 14.6707L97.3397 22.0837L98.5167 26.2017Z" fill="#AA4D77"/>
<path d="M100.751 34.4357L98.7516 29.3777L95.6936 25.9657L93.6936 22.5537L93.6806 22.2497L90.5156 19.0237L86.9856 13.0237V7.84668L89.3386 3.6127L93.7246 3.3197L91.3396 1.73068L87.6926 0.0836792L86.8686 0.670685H83.9286L83.8096 1.84769L80.9866 2.90768L79.1056 7.73068L79.6926 11.8487L82.5166 21.4957L86.5166 27.0247L91.6926 28.6717L96.1626 31.4957L99.6926 36.4367L100.869 40.2007L101.81 38.0837L101.949 35.7407L100.751 34.4357Z" fill="#BC5B82"/>
<path d="M83.8097 20.6707L81.1036 10.7897L80.9866 5.02368L83.0107 2.14767L80.9866 2.90768L79.1057 7.73068L79.6927 11.8487L82.5167 21.4957L86.5167 27.0247L88.7336 27.7307L83.8097 20.6707Z" fill="#AA4D77"/>
<path d="M90.7507 6.67068L92.0457 6.08368L93.1047 5.49469V6.20169L93.8097 7.25967L93.5747 7.72968L90.7507 6.67068Z" fill="#655D72"/>
<path d="M41.9866 59.7487L41.3217 54.6457L36.0457 61.3177L32.5167 64.8477L32.6927 66.7897L37.1046 63.9647L41.9866 59.7487Z" fill="#4E455B"/>
<path d="M44.5266 63.3017L42.0446 60.2007L41.8476 58.6857L38.5156 61.8477L33.2226 65.9067L30.2216 69.0827L28.6336 69.7187V72.6707L28.9076 73.2167L31.9876 72.0827L39.3986 66.9647L44.5266 63.3017Z" fill="#271F35"/>
<path d="M46.0987 65.2677L38.6927 71.7297L32.5167 75.2587L30.5567 76.5187L31.2717 77.9477L34.8107 77.0247L40.2807 73.4947L44.6927 70.6707L48.0027 67.6477L46.0987 65.2677Z" fill="#4E455B"/>
<path d="M49.5757 69.6127L48.9316 68.8077L44.3397 72.7887L40.2806 75.9647L39.9276 77.5527L42.2216 78.4357L53.0247 72.0517L49.5757 69.6127Z" fill="#271F35"/>
<path d="M45.0457 88.6327L47.8616 90.5097L50.8697 87.7887L59.2256 76.4367L59.2216 76.4357L55.7236 73.9617L52.2816 77.5527L49.4566 83.7297L45.0457 88.6327Z" fill="#271F35"/>
<path d="M59.2216 76.4357L58.3126 75.7927L55.9866 78.9647L54.5746 83.7297L52.6336 88.1417L53.6926 89.2007L57.7506 84.6127L61.9116 76.8297L59.2216 76.4357Z" fill="#4E455B"/>
<path d="M63.7407 93.3247L69.4526 77.9037L68.8697 77.8477L65.3966 77.3397L64.1046 81.7887L61.9866 87.0817L59.8347 94.0027C60.6127 93.8807 62.0407 93.6307 63.7407 93.3247Z" fill="#271F35"/>
<path d="M71.2697 78.0777L70.4567 82.1417L69.5757 86.3777L71.3387 86.5527L73.5137 78.2907L71.2697 78.0777Z" fill="#4E455B"/>
<path d="M51.5756 56.9067L48.7516 64.8477L49.8106 66.6127L54.9276 59.2007L51.5756 56.9067Z" fill="#3A3147"/>
<path d="M56.3386 59.7297L59.3386 60.7897L52.6336 69.9647L51.2226 68.2007L56.3386 59.7297Z" fill="#271F35"/>
<path d="M60.3986 60.9647L63.9276 62.0247L56.1626 72.2587L54.9276 71.0237L60.3986 60.9647Z" fill="#3A3147"/>
<path d="M64.2816 63.0837L58.2806 71.1997L58.9866 73.8467L60.9276 73.6707L66.7516 63.6127L64.2816 63.0837Z" fill="#3A3147"/>
<path d="M68.3396 63.6127L65.3396 74.0237L65.6926 74.7297L67.2816 75.2587L71.6926 64.3187L68.3396 63.6127Z" fill="#3A3147"/>
<path d="M49.8107 56.0237L46.1047 62.2007L45.2217 60.2587L47.8697 53.7297L49.8107 56.0237Z" fill="#3A3147"/>
<path d="M77.3397 66.6127L76.8097 75.6127L79.1046 75.7887L81.0457 66.7897L77.3397 66.6127Z" fill="#3A3147"/>
<path d="M54.7506 42.6117L54.9276 46.8477L56.8687 48.2597L58.1036 47.5527V41.7297L54.7506 42.6117Z" fill="#3A3147"/>
<path d="M59.3387 43.1417L60.2217 46.3177L61.6337 48.4367L63.5757 48.0837L62.3397 43.4947L59.3387 43.1417Z" fill="#3A3147"/>
<path d="M62.6926 37.8467L61.6336 40.4947L63.0456 42.0837L65.6926 38.5527L62.6926 37.8467Z" fill="#3A3147"/>
<path d="M65.6927 41.3767L65.1627 43.1417L65.8697 45.7897L67.4567 45.6127L67.8107 41.7297L65.6927 41.3767Z" fill="#3A3147"/>
<path d="M67.8106 53.5527L70.2806 54.7887L71.6926 53.7297L67.6336 50.7297L67.8106 53.5527Z" fill="#3A3147"/>
<path d="M79.1047 54.0827L82.6337 55.1407L82.4567 56.2007L80.1627 56.3767L78.0447 54.6127L79.1047 54.0827Z" fill="#3A3147"/>
<path d="M41.7926 23.3197L35.3396 11.2007L29.8696 14.0237L38.9356 24.6807L41.7926 23.3197Z" fill="#655D72"/>
<path d="M27.2216 15.6127L24.2216 18.4357L35.2236 28.6527L37.1006 26.4317L27.2216 15.6127Z" fill="#655D72"/>
<path d="M17.8697 23.9057L15.2227 27.4357L18.5757 29.3777L29.5686 35.3447L31.4316 33.1397L23.6927 26.5527L17.8697 23.9057Z" fill="#655D72"/>
<path d="M14.3397 32.0247L14.5167 34.3187L27.4067 39.4107L27.7507 37.4947L29.0287 35.9837L15.2227 30.2587L14.3397 32.0247Z" fill="#655D72"/>
<path d="M27.2277 40.4017L13.8106 36.9647V39.7887L14.5167 42.4357L26.6806 43.4347L27.2277 40.4017Z" fill="#655D72"/>
<path d="M26.4767 44.5637L14.6927 44.7297L15.7517 48.4367L25.8877 47.8307L26.4767 44.5637Z" fill="#655D72"/>
<path d="M25.6636 49.2837L16.4576 50.5537L17.5167 53.0237L25.3267 51.6457L25.6636 49.2837Z" fill="#655D72"/>
<path d="M26.8696 10.4947L20.6926 3.4357L17.2336 0.200684H11.6936L11.4356 0.352692L18.9276 6.08368L25.1046 11.9067L26.8696 10.4947Z" fill="#655D72"/>
<path d="M18.9276 11.9067L14.1626 6.96469L8.03262 2.36768L3.34061 5.14169L2.68661 8.19968L7.9866 9.96469L19.1046 17.5537L20.8696 14.0237L18.9276 11.9067Z" fill="#655D72"/>
<path d="M10.1046 13.6707L5.51566 10.8477L2.36163 9.7117L1.26065 14.8507L7.28064 16.1417L15.5757 19.8477L16.4576 18.0837L14.8697 16.8477L10.1046 13.6707Z" fill="#655D72"/>
<path d="M8.69263 18.2587L3.39862 16.8477L0.980621 16.1577L0.163605 19.9657L0.298615 21.0837H6.04462L14.6926 22.3187L14.8696 20.7297L13.1046 20.0237L8.69263 18.2587Z" fill="#655D72"/>
<path d="M1.70062 32.6487L12.3986 31.1417L13.1046 29.7307L1.36462 29.8807L1.70062 32.6487Z" fill="#655D72"/>
<path d="M1.83768 33.7857L2.39569 38.3937L12.3987 35.3777L12.5757 33.2597L10.6337 32.9067L1.83768 33.7857Z" fill="#655D72"/>
<path d="M17.7426 28.8957L20.2336 24.9807L17.8697 23.9057L15.2227 27.4357L17.7426 28.8957Z" fill="#7C738E"/>
<path d="M28.5397 17.0557L27.2217 15.6127L24.2217 18.4357L25.6287 19.7427L28.5397 17.0557Z" fill="#7C738E"/>
<path d="M19.8326 2.63269L17.2336 0.200684H11.6936L11.4356 0.352692L15.2206 3.24768L19.8326 2.63269Z" fill="#7C738E"/>
<path d="M2.68665 8.19968L7.11066 9.6727L10.9966 4.58969L8.03265 2.36768L3.34064 5.14169L2.68665 8.19968Z" fill="#7C738E"/>
<path d="M5.20862 15.6987L7.13562 11.8437L5.51562 10.8477L2.3616 9.7117L1.26062 14.8507L5.20862 15.6987Z" fill="#7C738E"/>
<path d="M4.95966 29.8347L1.36465 29.8807L1.70065 32.6487L5.40063 32.1277L4.95966 29.8347Z" fill="#7C738E"/>
<path d="M16.5327 37.6637L13.8106 36.9647V39.7887L14.5167 42.4357L17.0717 42.6467L16.5327 37.6637Z" fill="#7C738E"/>
<path d="M17.5977 31.2447L15.2227 30.2587L14.3397 32.0247L14.5167 34.3187L16.7776 35.2117L17.5977 31.2447Z" fill="#7C738E"/>
<path d="M31.8457 16.3477L37.2327 14.7567L35.3397 11.2007L29.8697 14.0237L31.8457 16.3477Z" fill="#7C738E"/>
</svg>
