<svg width="148" height="134" viewBox="0 0 148 134" fill="none" xmlns="http://www.w3.org/2000/svg">
<path d="M44.1127 83.3549L39.3397 95.2869L34.3507 102.879L33.6997 104.832L35.2177 115.463L35.8687 118.282L38.2547 121.32L40.8587 125.007L40.2067 127.178L35.6517 127.612L30.2287 125.007L31.7467 122.405V119.802L29.7947 118.067L30.4457 111.341L29.5777 102.228L28.2767 93.1179L40.4247 79.4499L44.1127 83.3549Z" fill="#A8795A"/>
<path d="M108.98 79.4499L108.329 93.7679L106.81 102.662L106.375 109.388L108.98 118.067V120.886L112.016 122.621L113.97 126.31L108.329 128.045L104.641 125.875L98.7838 98.9749L101.82 83.3549L108.98 79.4499Z" fill="#A8795A"/>
<path d="M126.337 40.9069L130.097 41.1949L136.748 41.0519L135.88 43.7999L136.459 50.1629L138.628 54.0669L139.209 56.3809L140.365 55.5129V52.7669L142.245 46.4029L144.559 41.0509L146.583 40.6159L147.597 36.8559L147.162 32.0829L144.124 30.4919L139.641 27.8879L133.855 23.6199L129.952 20.8729L123.008 15.8839L116.934 15.3059L109.993 18.1989L104.786 29.1899L97.2658 36.1319L91.4088 40.6139L83.3808 41.9159C83.3808 41.9159 78.6088 45.3879 77.9578 45.6049C77.3078 45.8219 63.2058 47.9909 63.2058 47.9909L46.0668 45.1719L38.0398 42.5679L28.9288 43.4369L17.4308 47.1249L15.4778 50.1619L9.18576 49.9449L2.67776 45.8229L0.0747681 47.1249L2.24376 56.2359L6.79976 58.8409L12.4398 56.6699L14.1758 58.8409L13.5248 64.0459L15.6938 69.9029L18.9478 78.3649L16.7788 91.1649L12.2228 95.0689L12.4398 97.2389L15.6938 104.832L17.6468 119.802L17.2128 122.621L20.2498 124.791L20.4668 126.961L19.3818 129.998L27.1908 132.602L30.2288 131.733L30.4458 129.348L27.4078 124.791L24.8048 122.621L23.7208 113.293L24.3708 100.71L28.2768 97.2389L36.9538 89.8629L40.6418 87.0429L54.0928 88.7779L69.0618 91.5979L87.2858 86.8249L91.4088 85.3049L93.3608 89.2109L92.9268 97.6709L92.0588 102.226L94.4448 107.216L96.6148 109.169L99.6518 125.223L98.7848 128.043L100.953 129.563L102.256 132.6L108.33 133.685L112.236 133.251L112.017 128.478L107.245 126.308L105.511 120.884L101.822 104.83L102.474 100.057L104.427 87.0409L112.018 80.0989L114.84 71.8549L115.056 64.9139L123.082 47.7749L126.337 40.9069Z" fill="#D3BA92"/>
<path d="M116.79 17.4039L121.997 17.8379L120.913 12.1969L115.271 5.47188L103.339 0.264877L102.472 1.35088L111.367 5.90587L115.49 12.4139L116.79 17.4039Z" fill="#E0B882"/>
<path d="M119.176 19.3559L116.574 19.5739L108.98 29.7689L106.81 32.5899L108.98 35.1929L114.403 33.4569L118.742 25.4309L119.61 21.3089L121.128 20.4409L120.696 18.9219L119.176 19.3559Z" fill="#C1A172"/>
<path d="M20.8998 85.7419L17.6458 93.1179L15.4758 95.0699L15.6928 97.6729L18.5138 95.2869L21.1158 88.7789L21.7678 85.0909L20.8998 85.7419Z" fill="#C1A172"/>
<path d="M126.337 40.9069L130.097 41.1959L136.748 41.0519L135.88 43.7999L136.459 50.1629L138.628 54.0679L139.209 56.3819L140.366 55.5139V52.7679L142.246 46.4039L144.56 41.0519L146.584 40.6179L147.307 37.9329L144.558 38.4479L140.438 38.2299L136.315 37.3629L133.279 36.9279L128.505 36.7119L124.6 35.4099L121.562 33.0239L120.261 30.4199L118.96 28.0349L119.176 31.7219L120.477 35.1929L121.345 37.7959L122.864 39.9649L122.429 42.7869L119.176 51.6809L116.357 58.4069L113.319 62.0939L111.367 60.1409L108.545 56.8869L106.375 56.0189L107.244 57.5379L110.499 61.8769L111.367 66.2159L109.413 70.7719L104.858 78.3659L103.774 83.1379L102.906 85.7419L104.425 87.0429L112.016 80.1009L114.838 71.8569L115.054 64.9149L123.081 47.7769L126.337 40.9069Z" fill="#C1A172"/>
<path d="M87.0677 75.9779L82.9457 79.0149L74.9187 81.6189L67.9767 82.2699L55.3938 82.4869L50.8377 81.1849L46.7168 80.3179L42.8118 77.0639L42.5947 79.2329L41.9437 82.7019L39.9637 87.5609L40.6417 87.0429L54.0927 88.7789L69.0607 91.5989L87.2847 86.8259L91.4077 85.3069L91.5927 85.6789L92.2737 82.2699L87.0677 75.9779Z" fill="#C1A172"/>
<path d="M98.1317 107.218L95.9627 104.616L93.7927 100.493L94.0098 95.7209L93.2867 90.6489L92.9258 97.6729L92.0577 102.228L94.4437 107.218L96.6137 109.171L99.6507 125.225L98.7838 128.045L99.5307 128.57L100.085 124.14L99.2168 119.584L98.1317 107.218Z" fill="#C1A172"/>
<path d="M103.774 117.849L105.165 119.386L101.82 104.832L102.472 100.059L102.707 98.4819L101.169 103.096L100.302 105.049L102.472 112.642L103.774 117.849Z" fill="#C1A172"/>
<path d="M24.8737 122.679L22.6357 122.838L21.1158 122.188L20.4657 119.585C20.4657 119.585 19.3807 114.162 19.1637 113.511C18.9467 112.861 18.7298 107.003 18.7298 107.003L17.4277 101.796L12.8828 98.2769L15.6917 104.833L17.6447 119.803L17.2107 122.622L20.2477 124.792L20.4648 126.962L19.3797 129.999L27.1888 132.603L30.2267 131.734L30.4437 129.349L27.4057 124.792L24.8737 122.679Z" fill="#C1A172"/>
<path d="M14.1748 58.8409L13.5238 64.0459L15.6928 69.9039L18.9478 78.3659L17.1278 89.0949L18.7308 87.9119L20.0328 84.0049L22.6358 82.4869L22.8528 78.5809L21.1158 74.4599L17.4288 67.3009L16.5618 59.2749L14.1748 55.1519H10.9198L5.28076 54.5009L1.80775 51.4639L0.731766 46.7949L0.0727539 47.1249L2.24277 56.2369L6.79877 58.8409L12.4388 56.6699L14.1748 58.8409Z" fill="#C1A172"/>
<path d="M92.1147 82.0769L85.1158 84.6569L70.7968 88.5619L56.2617 87.0429L41.1478 84.6569L39.9637 87.5609L40.6417 87.0429L54.0927 88.7789L69.0607 91.5989L87.2847 86.8259L91.4077 85.3069L91.5927 85.6789L92.2737 82.2699L92.1147 82.0769Z" fill="#A8795A"/>
<path d="M30.2288 131.733L30.4458 129.348L29.1758 127.444L24.5878 128.263L19.7768 128.889L19.3818 129.998L27.1908 132.602L30.2288 131.733Z" fill="#D3BA92"/>
<path d="M112.235 133.253L112.016 128.48L111.944 128.447L108.112 129.13L101.269 130.299L102.254 132.602L108.329 133.687L112.235 133.253Z" fill="#C1A172"/>
<path d="M114.403 33.4569L118.742 25.4309L119.494 21.8609L117.079 22.8279L114.04 27.3099L112.163 31.3619L111.898 34.2589L114.403 33.4569Z" fill="#C1886C"/>
<path d="M145.572 39.0259L147.037 38.9399L147.299 37.9599L145.716 38.1579L142.969 37.7239L140.438 38.2299L140.51 38.8799L142.825 38.5919L145.572 39.0259Z" fill="#A8795A"/>
<path d="M146.44 34.1079L145.428 32.9499L143.692 32.8059L143.981 33.3839L143.836 34.1079H146.44Z" fill="#A8795A"/>
<path d="M130.53 27.1659L128.217 24.8529L126.915 23.2899L126.335 22.1049L124.092 22.0319L122.72 23.4059L124.166 24.8529L126.191 25.1409L128.505 26.5869L130.241 27.6009L130.53 27.1659Z" fill="#C1A172"/>
<path d="M124.456 23.1169L123.824 23.8219L124.581 24.3649L126.987 24.5639L126.498 24.0209L126.372 22.8629L124.456 23.1169Z" fill="#A8795A"/>
<path d="M137.832 41.1599H139.135L138.375 43.9799L137.832 47.0169V49.2939L137.183 46.3669L137.832 41.1599Z" fill="#D3BA92"/>
<path d="M139.351 43.5459L138.484 46.3669V49.1859L139.351 51.3559L139.461 47.3419L140.438 42.2439L139.351 43.5459Z" fill="#D3BA92"/>
<path d="M120.913 12.1969L117.094 7.64388L117.766 8.94289L120.153 13.2819L118.309 14.3659L116.463 12.8479L111.8 5.36388L105.833 2.54289L102.626 1.15587L102.472 1.35088L111.367 5.90587L115.49 12.4139L116.79 17.4039L121.997 17.8379L120.913 12.1969Z" fill="#B28056"/>
<path d="M84.8914 57.3299C85.1794 59.7779 83.3914 62.3819 79.5274 65.1419C78.5194 65.8619 77.5714 66.5219 76.6834 67.1219C75.7954 67.7219 75.0274 68.2739 74.3794 68.7779C73.7554 69.2579 73.4074 69.6779 73.3354 70.0379C73.2874 70.6139 73.0114 71.0939 72.5074 71.4779C72.0034 71.8619 71.4394 72.1379 70.8154 72.3059C70.1914 72.4499 69.5674 72.4979 68.9434 72.4499C68.3194 72.4019 67.8634 72.2339 67.5754 71.9459C66.9034 70.5059 67.2874 68.7779 68.7274 66.7619C69.3754 65.8739 70.1314 64.9859 70.9954 64.0979C71.8594 63.1859 72.6994 62.3099 73.5154 61.4699C74.3554 60.6059 75.0994 59.7899 75.7474 59.0219C76.4914 58.1099 76.9474 57.2699 77.1154 56.5019H77.0074C76.8394 56.6459 76.6714 56.8259 76.5034 57.0419C76.3594 57.2339 76.0354 57.4619 75.5314 57.7259C75.0274 57.9899 74.5714 58.2059 74.1634 58.3739C73.7794 58.5419 73.4074 58.7099 73.0474 58.8779C72.7114 59.0219 72.4954 59.1179 72.3994 59.1659C72.3274 59.2139 72.2434 59.2619 72.1474 59.3099C72.0754 59.3579 71.9674 59.4059 71.8234 59.4539L71.2474 59.6699C69.1594 60.1739 67.6714 59.8859 66.7834 58.8059C66.4714 58.4219 66.1834 57.8939 65.9194 57.2219C65.6554 56.2619 65.9194 55.1339 66.7114 53.8379C67.3834 52.7099 68.2234 51.8579 69.2314 51.2819C70.2394 50.6819 71.4994 50.1899 73.0114 49.8059C74.5474 49.3979 76.0594 49.1939 77.5474 49.1939C79.0354 49.1939 80.4034 49.4219 81.6514 49.8779C82.8994 50.3339 83.8354 51.0659 84.4594 52.0739C84.6994 52.5299 84.7714 53.0219 84.6754 53.5499C84.5794 54.0779 84.4834 54.4979 84.3874 54.8099C84.3154 55.0979 84.2794 55.3619 84.2794 55.6019C84.3034 55.8419 84.3994 56.1179 84.5674 56.4299C84.7354 56.7179 84.8434 57.0179 84.8914 57.3299ZM71.1394 77.3819C70.6354 78.3899 69.9754 79.1219 69.1594 79.5779C68.3434 80.0579 67.5514 80.2979 66.7834 80.2979C66.0394 80.3219 65.4154 80.1179 64.9114 79.6859C64.4074 79.2539 64.2034 78.6179 64.2994 77.7779C64.3474 76.6019 64.9354 75.7979 66.0634 75.3659C67.5034 74.7899 68.8594 74.7899 70.1314 75.3659C71.3074 75.8939 71.6434 76.5659 71.1394 77.3819Z" fill="white"/>
</svg>
